<svg width="80" height="80" fill="none" xmlns="http://www.w3.org/2000/svg"><path d="M54.97 3.808c-1.205-1.362-4.19-1.026-4.361-1.009a.345.345 0 00-.252.177c-.197.151-.07 6.36.05 6.66.132.475 1.472.684 2.395.58 1.099-.189 2.66-.782 3.037-2.119.683-2.351-.169-3.491-.87-4.289zm-1.74 3.33h-.327l.012-1.117c.276.056.525.2.711.411a.506.506 0 01-.396.707zM48.542 3.38c-.781-.757-1.8-.74-2.833-.757-.439 0-.922-.068-1.2.184-.108.108-.307 6.56-.201 6.685 0 0 0 .124.277.328.277.205 1.643.656 3.219-.214 1.033-.532 1.467-1.514 1.749-2.591.277-1.32.106-2.53-1.01-3.635zm-1.764 3.658H46.6l.02-.994a.504.504 0 01.157.994zm-8.444.655c-.068-.588-1.213-1.286-1.467-1.438.06 0 .199-.076.471-.57.421-.757.088-1.801-.315-2.482a3.129 3.129 0 00-1.134-1.01c-.414-.146-2.974-.227-4.033.732.151 2.472.575 4.758.801 7.205.038.177.963.535 1.694.717 1.21.227 1.951.154 3.328-.808.604-.605.801-1.198.655-2.346zm-3.655-2.957c-.076.101-.176.177-.277.076-.101-.1 0-.252.075-.353.177.005.328.131.202.277zm.706 3.936c-.126.05-.227-.1-.252-.177l.075-.227a.216.216 0 01.278.152c.05.1-.05.181-.101.257v-.005zM10.406 6.205a3.07 3.07 0 00.557-.865 2.31 2.31 0 00-.252-1.405c-.53-1.06-1.664-1.047-2.773-1.136-.756.05-1.512.298-1.938.757.176 2.069.451 4.21.678 6.254a.757.757 0 00.212.361c.148.106 2.649.923 3.78.116.91-.555 1.027-1.302 1.047-2.344-.101-.729-.757-1.284-1.311-1.738zm-2.082-.757l-.035-.416c.1-.025.209.119.234.194-.015.137-.149.184-.199.21v.012zm.618 2.957l.027-.648c.202.05.288.227.303.53.015.063-.215.252-.33.105v.013zm56.664-5.686c.111.217.379.883.202 1.337-.176.22-1.537.555-2.344.731-.166.076-.176.684-.076.808.101.123 1.208-.29 1.538.353.088.217.252 1.085-.05 1.514-.28.36-1.034.085-1.326.295-.076.055-.126.252-.063.295.453.202.935-.136 1.363-.111.278-.076.454.126.555.353.04.47.338 2.018-.62 2.336-2.99.348-4.144-.542-4.252-.64a.505.505 0 01-.144-.233c.1-2.346.186-6.541.202-6.76a.293.293 0 01.252-.253c1.36-.278 3.417-1.027 4.234-.63.22.158.402.365.53.605zm7.386 1.141c.33.8-.31 1.69-.68 2.018.377.731.569 1.602.266 2.41-.403 1.26-1.825 2.252-3.06 2.378-1.16.05-3.12.106-3.256-1.08-.025-.68.24-1.801.479-1.892 1.058 0 2.092.53 3.1.177.227-.126.126-.404.1-.58-.37-1.262-3.228-.682-2.923-2.876.23-1.37 1.689-2.17 3-2.347.874-.073 2.344.651 2.974 1.792zm-13.359-.581c.152 2.023.177 4.053.075 6.08-.078.668-1.79.883-2.722.68a.473.473 0 01-.277-.403c.252-2.371.093-5.984.403-6.837.088-.207.895-.32 1.41-.333a1.184 1.184 0 011.11.813zm-19.015.027c.075 1.136-.217 2.193.337 3.177 0 0 .131 0 .202-.253.07-.252.353-2.346.832-3.38.378-.429 1.091-.141 1.336.025 1.119.906.552 2.538.252 3.658-.487 1.66-1.104 3.441-3.025 3.784-.718.076-1.235-.454-1.512-1.009-.633-.991-.58-5.971-.434-6.138.429-.353 1.286-.757 1.618-.572.333.184.394.708.394.708zm-12.291-.633c.353.05.429.43.504.707l.404 1.74c0 .283-.252.366-.454.366a44.7 44.7 0 01-2.269.252c.122 1.123.156 2.253.101 3.381-.176.429-.655.404-1.033.328-.504-.151-1.11-.277-1.361-.858-.177-.908.058-2.775 0-2.85-.378-.354-1.122.08-1.45-.45-.327-.53-.113-1.513-.44-2.149-.051-.202.024-.454.226-.48 1.916-.194 4.141.059 5.772.013zm-13.364.131c.403.606.61 1.416.756 1.938a.35.35 0 01-.277.404c-.53.075-1.109.05-1.588.277.076.227 0 .348.05.58.353-.025.706-.151 1.06-.05.453.429.342 1.536.251 1.831-.328.354-.862.162-1.26.389 0 .114-.018.222.05.252.207.116.693-.053.882.195.505.378.505 1.009.48 1.539a.782.782 0 01-.782.605c-.73-.025-2.097-.252-2.218-.353a.788.788 0 01-.151-.404c-.101-2.245-.525-6.307-.472-6.615.429-.504 2.017-.784 2.287-.802.332.033.705-.038.932.214z" fill="#231F20"/><path d="M64.785 2.804c.176.157.365.677.063.828-.134.078-1.75.419-1.981.492-.232.073-.588 2.086-.114 2.318.386.147 1.124-.133 1.434 0 .124.058.106.253.043.389s-.837-.048-1.164.23c-.273.219-.545 1.278-.283 1.606.48.48 1.68.066 1.84.152.162.086.197.757-.025.933-.222.177-2.641-.113-3.04-.29a.52.52 0 01-.186-.19c.025-1.992-.154-5.728-.056-5.882 1.084-.369 3.29-.745 3.469-.586zm7.451 1.61c.07.172-.013.482-.202.517-.731-.176-1.477-1.478-1.959-.964a.482.482 0 00-.108.523c.832 1.034 2.193 1.892 1.941 3.33a2.634 2.634 0 01-2.168 1.867c-.857.075-1.89.075-2.646-.328-.109-.119-.036-.684.1-.732 1.009.151 2.32.48 3.227-.277a1.135 1.135 0 00.328-1.11c-.464-1.648-2.864-1.993-2.924-2.246-.227-.504.201-1.034.529-1.463.474-.505 1.31-.858 2.067-.555.73.177 1.336.832 1.815 1.438z" fill="#9397CB"/><path d="M22.099 4.28c-.05.58-.035 1.423-.368 1.71a.96.96 0 01-.598-.032c-.1.227.295.62.326.943.1 1.186.063 2.382-1.046 3.063-1.16.555-2.874.782-4.033.05-.58-.554-.348-2.136-.252-2.245.272-.29.973-.06 1.588-.025.453.018 1.134.177 1.335-.378.076-1.16-1.07-.452-1.764-1.766-.403-.681-.083-1.865.3-2.233.779-.954 2.672-.353 3.756.1.254.19.706.485.756.813z" fill="#231F20"/><path d="M58.95 3.559V7.95c.022.482.272 1.186-.429 1.3-.328.05-.85.168-.94.032.025-1.917-.227-4.112.202-5.954.337-.151.99-.224 1.167.23zm-44.446-.136c.026.15.288.84.252 1.041-.042.142-1.313.046-1.477.268-.068.126-.315 1.289 0 1.97.2.285.812.058 1.165.033.062.152.087.318.07.482-.428.202-1.109.232-1.184.398-.023.505-.184 1.348.075 1.514.404.101.989 0 1.215.424-.025.126.076.328-.075.404a4.135 4.135 0 01-1.714-.278c-.126-1.968-.202-3.96-.404-5.903.65-.245 1.793-.575 2.077-.353zm13.521.032l.337 1.282c-.02.126-1.512.217-2.303.116-.2.053-.379.121-.379.298a21.88 21.88 0 01.202 3.405c-.045.197-.799-.128-.907-.252-.202-1.009.1-2.197-.101-3.232-.428-.428-1.225-.156-1.56-.504l-.154-1.246c1.664.032 3.201.108 4.865.133zm11.846-.05c-.075 1.514-.226 3.23 1.034 4.163.456.363.844-.813 1.008-1.565.204-.956.202-1.74.58-2.522.328-.177.58.227.73.454.203.807-.06 1.531-.302 2.346-.302 1.21-.831 2.7-2.218 3.103a.72.72 0 01-.756-.278c-.66-.756-.7-3.304-.706-5.525.202-.126.429-.302.63-.176zM21.27 4.414a2.232 2.232 0 01-.202.656c-.58-.05-1.235-1.034-1.79-.328-.133.346.684.933.983 1.488.48.757.605 1.943.202 2.75-.72 1.037-3.403.838-3.604.379a1.316 1.316 0 01-.05-.858c.972.078 2.293.378 2.873-.63a2.223 2.223 0 00-.101-1.514c-.429-.732-1.462-.455-1.714-1.338-.076-.353-.063-.842.176-1.084.756-.555 1.84-.152 2.622.126.222.078.427.198.605.353zm33.594.496c-.877-1.41-2.39-1.404-3.801-1.26-.177 1.816.151 3.481.025 5.373.038.492 2.916.545 3.73-.555a3.135 3.135 0 00.046-3.557zm-.524 2.178c-.222.358-.547.64-.933.807-.406.109-1.008.228-1.21-.201-.05-.858-.035-2.574.025-2.675.53-.353 1.238.172 1.538.404.221.192.416.413.58.656a1.01 1.01 0 010 1.01zm-5.95-2.674c-.63-1.11-1.99-1.16-3.15-.959.025 1.867-.428 3.709-.201 5.576.403.277 1.134.151 1.663.126 1.034-.202 1.79-1.085 2.092-2.069.227-.883.152-1.942-.403-2.674zm-.68 2.876c-.252.368-1.008.757-1.638.48-.53-.321-.303-1.691-.277-2.448a.757.757 0 01.58-.252 1.84 1.84 0 011.537 1.06c.076.398.004.81-.202 1.16zm-37.606-.328c-.278-.151-.537-.159-.757-.436-.083-.528.706-.727.883-1.206a1.01 1.01 0 00-.076-.856c-.68-1.11-2.395-1.135-3.428-.605.025 1.867.375 3.633.602 5.424.908.252 1.893.53 2.901.278.555-.202.757-.833.782-1.388-.05-.505-.487-.913-.907-1.211zm-2.47-1.16c-.051-.43-.228-.934 0-1.338.327-.277.932-.378 1.234.026.177.328.378.706.227 1.11a.988.988 0 01-.806.479c-.252.025-.58 0-.656-.277zm2.268 2.674c-.05.378-.386.535-.756.68a1.436 1.436 0 01-.857-.075l-.033-1.884c.302-.379 1.008-.379 1.381.103a1.184 1.184 0 01.265 1.176zm27.701-.53c-.126-.33-.706-.681-1.11-.908-.377-.152-.932.05-1.234-.303-.235-.704.882-.833 1.285-1.312.303-.404.278-1.135.05-1.564-.226-.379-.73-.939-1.078-1.01-.9-.103-2.64 0-2.93.475.177 1.489.253 3.002.555 4.44.076.606.104 1.398.253 1.817.415.222.863.376 1.328.454.648.075 2.18-.046 2.697-.808.221-.388.287-.846.184-1.281zM33.67 5.07c-.025-.454-.025-1.085.453-1.287a.922.922 0 011.26.48.943.943 0 01-.05.857 1.328 1.328 0 01-.781.505c-.403.1-.706-.252-.882-.555zm2.47 3.759a1.553 1.553 0 01-.68.656.955.955 0 01-.782-.252 1.451 1.451 0 01-.227-1.211.888.888 0 01.807-.555.859.859 0 01.806.428c.076.278.278.626.076.934z" fill="#9397CB"/><path d="M71.815 11.147a.99.99 0 011.692-.672.989.989 0 11-1.692.672zm.99 1.219a1.215 1.215 0 00.833-2.082 1.214 1.214 0 00-1.974 1.334 1.215 1.215 0 001.141.748zm-.252-1.123h.252l.368.608h.24l-.401-.618a.365.365 0 00.365-.386c0-.277-.166-.398-.504-.398h-.534v1.402h.212l.002-.608zm0-.181v-.434h.29c.149 0 .307.033.307.207 0 .214-.16.227-.342.227h-.255zm-31.245 2.131c6.428-.479 12.93-.151 19.409.05 3.78-.176 7.838-.378 11.645-.125.075.353.529.328.605.68-.328 6.46.126 12.918-.252 19.553-.152 4.415.05 8.805-.48 13.144-.201 3.582-.1 7.417-.403 11-.025 3.33-.1 6.71-.252 10.04a.652.652 0 01-.353.555l-10.032-.151-7.108.076-11.77.277c-6.352-.202-12.15.378-18.376.328-5.52.429-11.342-.202-16.787.404a.804.804 0 01-.605-.53c-.05-.38.04-.766.252-1.085.429-9.133-.957-17.988-.529-26.994-.126-2.952-.126-6.459 0-9.789-.126-5.07.05-10.318.151-15.288-.025-.681-.353-1.615.303-2.069.504-.454 1.008.202 1.613-.076 3.806-.05 7.562-.353 11.343-.353 7.108.222 14.468.353 21.626.353z" fill="#231F20"/><path d="M51.264 14.985a38.798 38.798 0 015.42.126c4.84.303 9.553-.454 14.417-.126.152 1.766-.1 3.43-.075 5.247l-.05 11.706-.227 10.066c-.63.202-1.26-.025-1.84-.151-.101.126-.328.252-.202.429l.328.277c-.101.152-.278.328-.152.53.177.328.58.353.68.706a.363.363 0 00-.554.278c.353.429-.554.48-.201.933l.504.575c-.252-.1-.68-.146-.807.132 0 .378.464.668.716.845-.252 0-.59-.063-.791.088-.026.126-.127.278-.026.404.278.353.656.429 1.009.605-.53.202-1.185-.227-1.513.379a.919.919 0 00.303.958 1.496 1.496 0 001.613.455.803.803 0 00.328-.934c-.782-.353.428-.58.025-1.06-.605-.302.426-.57-.409-1.22.178-.08.342-.187.484-.319.177-.428-.605-.68-.1-1.034-.454-.53.453-.757.15-1.312.303-.075.253-.403.253-.605-.05-.05-.126-.101-.101-.202.05-.05.151-.025.202-.025l.1.075a67.028 67.028 0 00-.504 8.452c-.025 2.043-.252 4.011-.277 6.03-2.445.227-4.512-.051-7.032.05-1.84-.151-3.857.076-5.621.126.479-.732 1.235-1.69 1.588-2.649 1.26.126 2.672-.05 3.478-1.085.706-.984.933-2.295.756-3.557 1.639-2.926 3.227-5.853 4.689-8.83.126-.706-.48-1.085-.857-1.539-.58-.832-1.336-1.64-1.89-2.497 1.486-1.287 2.873-2.851 2.343-4.945-.327-2.044-1.487-4.137-3.478-5.121-1.613-.455-3.176-1.035-4.84-1.337-.68-2.22-2.898-4.491-5.268-4.743-2.671-.58-5.066.277-6.931 2.018a3.275 3.275 0 01-.736-.187c-.615-.121-2.256-.535-3.592-.459a60.162 60.162 0 00-6.846 5.01 7.04 7.04 0 01-1.285.909c-.404-2.65-2.093-5.5-4.79-6.434a8.173 8.173 0 00-7.864 1.69c-1.663 1.565-2.931 3.762-3.402 5.299a9.832 9.832 0 00-.152 3.322c-2.596 1.539-5.091 3.255-7.687 4.768-.303.303-.638.676-.58 1.06.857 6.08 1.95 12.067 3.277 17.962-.706.757-1.286 1.564-1.488 2.548a17.803 17.803 0 01-3.1.202c-.176-.403-.025-.958-.126-1.387-.176-3.885-.328-7.972-.504-11.984l.05-14.153c-.226-3.582.101-7.29.05-10.924 0-1.766-.05-3.532.026-5.323 2.672-.151 5.545-.227 8.494-.252 3.025-.126 6.201.05 9.25.151l8.016.05c2.164.177 4.34.177 6.503 0 2.697-.277 5.52-.125 8.318-.277.857.184 1.697-.043 2.528.21z" fill="#9DD6C5"/><path d="M59.744 33.53c0 .711-.068 2.21.912 3.11a4.32 4.32 0 002.364 1.098l2.66 3.497s.189.07.138.449c-.973 1.655-1.111 2.316-2.268 4.41-.572.88-1.702 3.047-2.32 3.822-.123.323-.045.356.14.603-.061 2.475-.943 2.396-2.072 2.46-.726-.064-1.175-.036-1.931-.667-.913-.587-.426-1.856-.124-2.414.303-.558.524-.928.82-1.438 0 0 .819-1.13 1.159-1.655.781-1.186 2.195-3.759 2.195-3.759.431-.805.04-1.186.015-1.16-.126-.303-1.81-2.074-1.81-2.074-.73-.883-1.963-2.879-2.596-2.846-.65.124-1.144.91-1.144.91-.292.528.217 2.445.434 3.389.342 1.242.54 2.52.587 3.807.01.675.056 1.348.139 2.018-.293.681-.97 1.587-1.299 2.37-.327.73-.582 1.374-.557 2.257-.05 0 .109 1.39.79 1.996.352.353.776.522 1.204.774-.126.782-1.008 1.632-1.467 2.288a9.46 9.46 0 01-1.623 1.565c-.587.524-1.235.85-1.361 1.733.302 2.018.474 4.061.65 6.08-.201.176-.925.053-1.26.078a8.735 8.735 0 01-1.979.03l-.28.015c-.214.06-.214-.277-.252-.464 0 0-.68-3.63-.756-5.522 0 0-.186-.82-.252-1.302-.045-.252-.035-.384.141-.505a53.17 53.17 0 003.446-4.81c.325-.45.325-.637.187-1.068a1.356 1.356 0 00-.618-.295 1.008 1.008 0 00-1.051.557c-1.487 2.145-2.584 3.295-4.033 5.55-.37.356.139 2.122.202 2.973 0 0 .385 3.062.524 3.605.1.448.173.902.217 1.36-.908.052-2.904.143-3.71.093-.076-1.393-.023-1.986-.124-3.449-.151-1.514-.17-3.668-.217-4.672.025-.025-.076-1.176-.076-1.176.454-.431 3.65-4.884 4.482-6.02.171-.31-.08-1.243-.106-1.546-.68-3.507-1.048-5.888-1.174-9.546.025 0-.069-.908-.043-.883.05-.278-.295-.545-.756-.883-.084-.21-2.41.396-2.942.547l-4.073 1.01-2.773.63c-.035-.738.003-1.477.116-2.207 0 0 .19-.977.913-1.199.63-.189 2.112-.378 2.898-.63.126-.101 5.608-1.607 5.734-1.607.44 0 .623.635 1.228.66a.955.955 0 001.041-.597c.227-.959-.638-1.211-1.041-2.019-.723-1.105-1.104-1.692-1.038-2.744-.101-.127-.16-1.67.882-3.815.975-1.61 3.007-3.28 5.671-2.982 5.387.585 4.663 5.75 4.663 5.977l-.096 1.357c-.022.505-.602 1.695-.63 2.049a6.647 6.647 0 01-.786 1.45.806.806 0 00.03.916c.403.303.52.567 1.071.441.81-.252 1.238-1.854 1.692-2.409.01-.025 1.293.275 1.293.429z" fill="#F47A3F"/><path d="M30.47 24.9c1.915 2.043 2.394 4.974 1.716 7.7-.277.806-.784 1.457-1.086 2.24-.076.436.252.426.852.867.413.252.55.086.685 0 .968-.56 1.193-1.92 1.614-2.894.182-.72.3-1.454.352-2.194 2.924-1.716 5.344-4.138 8.243-5.904.756-.05 1.615.15 2.346.275-.595 1.057-1.06 1.996-1.212 3.131l-.076.48c-3.075 2.825-6.604 4.97-9.376 8.098l-.277.53c-.05 4.238-.731 8.426-1.235 12.563l.05.505L37.2 56.15c-.202 3.557-.832 6.938-1.513 10.293-1.31-.05-2.47.076-3.881.025.705-2.8 1.537-5.676 1.94-8.653.026-.631-.479-1.06-.756-1.59l-3.075-4.188a1.741 1.741 0 00-1.462-.328.708.708 0 00-.428.53c-.177.833.832 1.236 1.134 1.943.907 1.186 1.714 2.497 2.571 3.759a87.377 87.377 0 01-2.092 8.603c-1.412.025-2.596.151-4.058 0 .706-1.943 1.487-3.835 2.193-5.778a1.39 1.39 0 00-.252-1.009 18.595 18.595 0 01-5.243-11.176c-.731-2.876-.429-6.231-.555-9.334-.378-.404-.882-.782-1.462-.656-1.537 1.236-3.2 2.069-4.562 3.481-.025.379 0 .883.277 1.136 1.538 3.885 1.79 8.148 2.294 12.462 0 1.06-.075 2.22-.554 3.154-.681.58-1.336 1.312-2.219 1.539-.58.1-1.293.504-1.865-.05-.504-1.06.101-2.17.832-2.978a2.73 2.73 0 00.731-.807v-.505c-.731-3.607-1.638-7.19-2.168-10.822-.453-2.271-1.154-6.633-1.008-6.812 2.269-1.337 4.512-2.8 6.78-4.213.555.504.807 1.236 1.387 1.791.403.379.73.934 1.36.732.354-.026.555-.379.782-.606.202-.732-.63-1.21-.983-1.715-.932-1.388-1.588-3.204-1.008-4.92.504-2.397 2.823-4.617 5.041-5.474.832-.238 2.98-.442 3.983.1l1.109.815zm34.28 5.777c.453 1.185 1.26 2.951.1 4.036-.453.404-.882.883-1.512.858-.565-.106-1.538-.278-1.487-1.186-.378-1.009.378-2.523-.983-2.951l-1.74-.556c-.075-.378.036-.817.132-1.417.025-.555-.03-.98.12-1.484 1.891.656 4.076.757 5.37 2.7z" fill="#FFD520"/><path d="M44.182 31.333c.121.507.281 1.005.478 1.488-.68.328-1.461.353-2.167.605l-1.714.48a32.579 32.579 0 013.403-2.573z" fill="#9DD6C5"/><path d="M70.345 37.64a.274.274 0 01.076.428c-.202.152-.555.101-.782.051-.126.227-.05.555-.352.681a.801.801 0 01-.858-.353.742.742 0 01-.201-.782c.227-.126.252-.429.53-.429.579 0 1 .353 1.587.404z" fill="#231F20"/><path d="M68.772 38s.131.18.2.124c.068-.056-.023-.207-.023-.207s-.043-.083-.116-.05c-.073.033-.06.133-.06.133z" fill="#9DD6C5"/><path d="M69.085 39.128a1.083 1.083 0 011.16.177c.251.277.554.58.377 1.009-.075.277-.302.227-.529.303-.53-.026-.958-.43-1.487-.278a.952.952 0 01-.53-.555c.026-.378.051-.782.43-.933a.756.756 0 01.579.277z" fill="#231F20"/><path d="M68.88 39.672c0 .05-.082.1-.153.076a.202.202 0 01-.045-.166c.025-.078.16-.05.199.09zm1.163.238v.076c-.177-.076-.404-.025-.504-.252.025-.379.378.025.504.176zm-25.181.883c.025 3.507.655 6.736 1.185 10.041-1.639 1.993-2.924 4.137-4.537 6.13l-.076.808c-.73.151-1.512.403-2.268.252.075-.807.252-1.791 0-2.624-1.21-2.018-2.697-3.91-4.033-5.878.53-2.245.756-4.617.958-6.988 2.823-.883 5.797-1.388 8.695-2.069l.076.328zm14.645 2.17c-.277.429-.404.933-.731 1.337-.177-.959-.126-2.044-.353-2.977.378.5 1.31.959 1.084 1.64z" fill="#9DD6C5"/><path d="M19.9 44.812c-.175.227-.917.328-1.209.252-.328-.787-.67-1.554-.72-2.27a11.591 11.591 0 011.897-1.214c.151.853.083 2.35.033 3.232z" fill="#F47A3F"/><path d="M68.077 45.309a.406.406 0 01-.252.454c-.177.025-.252-.151-.278-.277a.295.295 0 01.53-.177z" fill="#231F20"/><path d="M20.085 47.025c.403 3.683 1.26 7.164 3 10.318l.932 1.362-4.083-.025c.554-2.245.15-4.793-.126-7.14-.11-1.52-.338-3.03-.68-4.515.276-.127.604-.076.881-.202l.076.202zm49.479 1.861c-.378.101-.756-.151-1.008-.403v-.126c.353.105.907.055 1.008.53z" fill="#9DD6C5"/><path d="M70.043 49.699a.252.252 0 01.126.277c-.303.328-.832.227-1.21.227-.05.227-.101.58.201.631.303.101.656-.227.807.101.025.227-.176.303-.328.378a9.135 9.135 0 01-2.873-.454.437.437 0 01.176-.403c.53-.026 1.034.227 1.488.126 0-.934-1.16-.681-1.74-1.01-.075-.126-.176-.277-.075-.403.504-.303.958.177 1.487.202a6.95 6.95 0 001.94.328zm-1.009 2.169c0 .152.026.379-.15.404a.251.251 0 01-.278-.126c0-.151-.05-.353.151-.404a.36.36 0 01.277.126zm-.327 1.514c.302-.227.227-.908.73-.731.152.277-.075.63-.15.933.15.227.68-.025.554.429-.302.378-.806-.076-1.134.252-.353-.378-.983-.126-1.437-.252a.276.276 0 01.151-.43 2.41 2.41 0 01.605-.05c-.05-.403-.58-.756-.932-1.009 0-.176 0-.403.201-.403a3.562 3.562 0 011.412 1.261zm1.033 1.892a1.26 1.26 0 00-1.058-.626.973.973 0 00-.807.677 1.048 1.048 0 00.126.908c.151.277.403.605.756.58a1.115 1.115 0 001.059-.58c.05-.321.024-.65-.076-.959zm-.489.119a.21.21 0 00-.3.073c-.037.048 0 .144-.02.202-.03.156-.075.252-.206.108-.043-.075-.02-.285-.086-.363-.066-.078-.187-.078-.313.023.22-.45.693-.308.928-.043h-.003zm-.385 1.062a.602.602 0 01-.552-.404l-.066-.202.038-.312.06.032a.61.61 0 00.472.7c.227-.026.393-.056.474-.283l.02-.096.025-.131h.063c.159.595-.257.61-.534.696z" fill="#231F20"/><path d="M69.21 60.572c-.402-.807.858-.58.681-1.261-.857.176-1.94.025-2.873.126a1.69 1.69 0 00.05.605 1.26 1.26 0 01-.655.606 1.302 1.302 0 01-1.084-.278.95.95 0 01-.075-.933H63.01c.026.353.026.732-.302.883a1.079 1.079 0 01-1.034-.202 1.326 1.326 0 01-.15-.757 18.375 18.375 0 00-3.404.152l.202.201a.838.838 0 01-1.084 1.211 1.245 1.245 0 01-.453-.504.707.707 0 01.378-.858c-.681.025-1.412-.076-2.017.076l.303.126c.403.1.446.376.453.757a1.05 1.05 0 01-1.008.857c-.063.876.03 1.756.277 2.599.429-.101 1.008-.046 1.21.227.077.353.05.72-.075 1.06-.252.252-.706.201-1.009.201a2.3 2.3 0 00.089.6 25.66 25.66 0 003.445.031c.18-.653.729-.711 1.26-.711.404.075.305.504.583.635 1.16.177 2.016-.277 3.125-.227.706.505 1.79.227 2.672.227a.588.588 0 010-.504c.202-.681.958-.252 1.437-.379.554.05.302.656.403.934l1.185.05c-.328-.227-.353-.547-.454-.875a.687.687 0 01.726-.505 22.87 22.87 0 00.08-3.71c-.342.02-.511-.208-.637-.46zm-13.257 2.599a.898.898 0 01-.378-1.01c.327-.479.957-.479 1.461-.428.16.034.303.123.404.252.151.429-.101.732-.202 1.085-.353.227-.882.126-1.285.1zm2.823 1.412c-.429 0-.908.303-1.185-.201-.202-.177-.1-.505-.025-.707.302-.277.706-.277 1.084-.403.176.05.428.075.453.302-.05.303.152.883-.327 1.01zm.957-2.422a1.084 1.084 0 01-.957-.201c-.076-.253-.227-.58-.05-.833.352-.504 1.159-.48 1.638-.227.09.217.252.732-.018.959-.247.419-.418.202-.612.302zm2.32 2.296c-.379.354-1.06.177-1.462 0-.303-.176-.252-.58-.202-.857.302-.656 1.033-.328 1.613-.354l.202.227c.08.336.026.689-.151.984zm1.159-2.018c-.202-.177-.429-.303-.479-.58a.717.717 0 01.479-.757 1.185 1.185 0 01.932.126.903.903 0 01-.025 1.01.967.967 0 01-.915.201h.008zm1.865 2.7c-.353.126-.907.302-1.26 0-.202-.253-.454-.58-.227-.934.328-.48 1.185-.429 1.664-.202.126.353.126.858-.177 1.135zm1.26-2.624a.726.726 0 01-.403-.808c0-.277.2-.388.426-.504.27-.015 1.545-.184 1.54.464.151.454-.227.656-.428.908-.378-.035-.807.187-1.135-.065v.005zm1.69 2.27a.962.962 0 01-.63-.58c.024-.353.05-.782.478-.933a1.55 1.55 0 011.285.378l.076.681a1.141 1.141 0 01-1.21.45v.004zm-26.341-2.674c-.453-.025-.907.076-1.31-.076a.881.881 0 01-.429-.933.644.644 0 01.403-.404c.378-.126 1.336.278 1.336-.328l-.1-.403c-.908-.076-1.74.1-2.622.151-.025.05-.1.076-.076.126 0 .227.303.076.454.126.277.177.252.48.303.757 0 .656-.681.63-1.11.782-.1.908-.453 1.716-.504 2.624.454-.151.857.076 1.21.278.07.33.035.674-.1.983-.303.303-.858.253-1.311.202l-.025.404h1.562c.278.05.202-.252.202-.404a1.12 1.12 0 01.983-.454c.076.076.126.177.227.126a.474.474 0 01.378.606.803.803 0 00.756 0c-.025-1.413-.1-2.8-.227-4.163zm-3.05 1.564c-.252-.176-.15-.555-.1-.807.201-.379.63-.404 1.033-.429.227.151.655.126.655.53.076.328-.126.58-.252.832-.428.076-.965.222-1.336-.126zm2.849 1.59c-.328.025-.757.126-1.009-.076a.81.81 0 01-.176-.984.892.892 0 01.933-.227c.201.025.428.05.529.277.1.404-.177.682-.277 1.01zM25.555 60.9c-1.664-.252-3.378-.025-5.067-.202.277.202.303.505.328.808-.227.63-.907.655-1.538.605a1.12 1.12 0 01-.428-.48.757.757 0 01.201-.907h-.504c-.58.479-1.109 1.034-1.764 1.337l.857.1a.756.756 0 01.504.909c-.227.429-.605.706-1.134.53-.252-.127-.58-.177-.68-.53a.805.805 0 01.075-.833c-.227.202-.756.152-.756.555-.252.43-.68.757-1.21.606a.803.803 0 01-.68-.631c-.984-.1-1.69-1.11-1.916-1.943-1.034.026-2.168.101-3.227.076v.732l.404.025c.201.353.831.48.655 1.01a1.17 1.17 0 01-.983.605v1.74c.1 0 .227.05.277-.025a.881.881 0 011.135.353c.15.328-.026.631-.328.858-.353.303-1.31-.025-1.11.757.707.151 1.438-.076 2.168-.101v-.055c-.226-.076-.201-.329-.327-.48a.604.604 0 01.252-.731c.504-.076 1.26-.278 1.563.353.226.302 0 .656-.278.858.429.126.807-.051 1.26 0l.404-.53c.504-.101 1.235-.354 1.613.201.076.127 0 .303.177.379 2.142-.05 4.436.1 6.452-.126-.151-.379.101-.656.378-.908.404-.076 1.034-.202 1.361.126.41-.949.771-1.917 1.084-2.902a1.165 1.165 0 01-.68-1.084c.277-.53.882-.53 1.336-.505.05-.172.252-.373.126-.55zm-14.872 3.608c-.353.05-.756.05-1.008-.177-.252-.227-.176-.605-.1-.933a1.404 1.404 0 011.108-.152l.429.53c.126.353-.227.53-.429.732zm-.252-1.993a.828.828 0 01-.252-.984c.429-.379 1.588-.53 1.865.202a.757.757 0 01-.327.782c-.436-.005-.883.176-1.286-.005v.005zm2.52 2.346c-.428.05-1.058.151-1.133-.404-.177-.201-.05-.454.025-.656.201-.378.756-.252 1.109-.277.209.125.375.31.479.53.176.353-.278.605-.48.807zm2.647.555a1.26 1.26 0 01-1.235-.025c-.327-.202-.252-.606-.201-.883.302-.53 1.411-.606 1.739.075.151.328-.083.606-.303.833zm2.344.933c-.252.303-.73.152-1.033.127a.726.726 0 01-.454-.555.644.644 0 01.404-.783c.478-.075 1.083-.1 1.335.379a.72.72 0 01-.252.832zm1.185-2.775c.303-.58 1.336-.479 1.664 0-.05.328-.076.808-.378 1.035a1.493 1.493 0 01-.933-.076c-.227-.227-.53-.58-.353-.959zm2.017 2.775c-.202.328-.706.227-1.009.303-.201-.025-.403-.277-.479-.454a.617.617 0 010-.656c.328-.378 1.11-.48 1.488-.076a.611.611 0 010 .883zm.201-4.642c.404-.479 1.437-.706 1.89-.075-.05.277.202.454-.024.68-.127.506-.681.354-.984.606a1.008 1.008 0 01-.68-.151 1.032 1.032 0 01-.202-1.06zm1.992 3.104c-.177.53-.757.327-1.11.378-.252-.05-.277-.353-.428-.53-.202-.378.126-.732.428-.883a1.008 1.008 0 011.11.303c.075.227.201.53 0 .732z" fill="#9397CB"/><path d="M13.32 31.577l-2.584-1.387a1.066 1.066 0 00-1.504 1.327c.085.217.239.4.438.522l2.478 1.302a1.064 1.064 0 001.572-.227 1.07 1.07 0 00-.398-1.54l-.002.003zm1.742-3.534l-3.277-2.667a1.066 1.066 0 00-1.708 1.047c.046.23.166.437.342.59l3.196 2.559a1.067 1.067 0 001.86-.305c.05-.147.066-.302.05-.456a1.067 1.067 0 00-.463-.768zm2.468-4.435l-1.355-.69a1.068 1.068 0 00-1.463 1.273c.075.262.248.486.483.625l1.24.608a1.066 1.066 0 101.094-1.821v.005zm3.273-2.145L18.3 17.714a1.068 1.068 0 00-1.716 1.262l2.445 3.625a1.041 1.041 0 001.211.56 1.066 1.066 0 00.568-1.698h-.005zm3.811-2.013l-.438-1.09a1.055 1.055 0 00-.303-.424 1.069 1.069 0 00-1.704 1.181l.55.923c.045.242.172.46.36.618a.917.917 0 001.377-.11 1.075 1.075 0 00.158-1.098zm4.361-.744l-.098-1.33a.952.952 0 00-.403-.69.934.934 0 00-1.037-.014.913.913 0 00-.408.805l.111 1.209a.941.941 0 001.442.885.913.913 0 00.393-.865zm4.388 1.672l-.13-2.659a.952.952 0 00-.137-.451 1.008 1.008 0 00-1.72.012.963.963 0 00-.133.472l.152 2.538a.93.93 0 00.128.636 1.009 1.009 0 001.369.335.959.959 0 00.471-.883zm4.825 2.087l.171-4.503a1.1 1.1 0 00-.376-.815.967.967 0 00-1.121-.078 1.087 1.087 0 00-.504.895l-.151 4.37c-.04.24.002.488.118.704a.967.967 0 001.369.388 1.09 1.09 0 00.494-.961zm4.227-1.269l.224-2.538a.927.927 0 00-.07-.447.971.971 0 00-1.637-.223.922.922 0 00-.189.43l-.191 2.425a.9.9 0 00.038.62.967.967 0 001.26.505.917.917 0 00.565-.772zm10.455-1.998l.454-1.262a.933.933 0 00-1.02-1.234.917.917 0 00-.694.576l-.393 1.148a.928.928 0 101.653.772zm-5.228 1.38l.757-2.644a1.034 1.034 0 00-.108-.836.931.931 0 00-.994-.403 1.008 1.008 0 00-.7.656l-.706 2.523a1.03 1.03 0 00-.096.663.933.933 0 001.129.757 1.022 1.022 0 00.718-.716zm9.894-.603l1.207-2.473a1.032 1.032 0 00.038-.845.93.93 0 00-.915-.567 1.008 1.008 0 00-.81.522l-1.131 2.371a1.037 1.037 0 00-.133 1.006.925.925 0 00.91.561 1.008 1.008 0 00.834-.575zm6.442 4.871l1.918-1.708a.963.963 0 00.252-.37 1.121 1.121 0 00-.59-1.34.92.92 0 00-.874.154l-1.817 1.647a.994.994 0 00-.409.48 1.127 1.127 0 00.593 1.34.92.92 0 00.927-.203zm-2.357-2.29l3.653-3.81a1.026 1.026 0 00.274-.797.926.926 0 00-.71-.797 1.007 1.007 0 00-.925.267l-3.552 3.716a1.027 1.027 0 00-.418.926.926.926 0 00.71.797 1.006 1.006 0 00.968-.302zm5.306 4.014l2.193-1.338a.986.986 0 00.328-.317 1.12 1.12 0 00-.34-1.423.91.91 0 00-.89 0l-2.082 1.294a.984.984 0 00-.49.396 1.124 1.124 0 00.344 1.423.912.912 0 00.937-.035zM8.488 77.843c-.289 0-.573-.071-.827-.207a1.626 1.626 0 01-.625-.578l-.02-.035a1.427 1.427 0 01-.151-.656l.012-.18.04-.176.505-.568h.834c.07-.058.134-.124.189-.196a.863.863 0 00.154-.253l.078-.22.05-.209.285-1.296.053-.16a3.225 3.225 0 01.29-.61c.23-.392.57-.708.978-.908a1.51 1.51 0 01.706-.161c.316-.007.626.088.884.272.47.343.757.941.888 1.824.035.213.055.428.057.643l.016 1.94-.04.41a.887.887 0 01.04.229v.098a4.014 4.014 0 01-.094.411.78.78 0 01-.907.54 2.774 2.774 0 01-.423-.043h-.046a.756.756 0 01-.469-.138.782.782 0 01-.234-.651.701.701 0 000-.132v-.663c0-.131 0-.275.018-.426l-.063.204a6.594 6.594 0 01-.252.636c-.565 1.042-1.357 1.259-1.926 1.259zm-.648-1.26a.69.69 0 00.252.228.801.801 0 00.388.098c.29 0 .711-.076 1.039-.737a4.73 4.73 0 00.216-.522l.18-.567.13-.467a.69.69 0 01.056-.184l.09-.207.079-.136a.706.706 0 01.595-.338c.219 0 .519.108.705.625l.023.081.048.3.018.212v.136a5.275 5.275 0 01-.038.548 4.889 4.889 0 00-.03.504l.017.53c.01.05.015.1.015.151l.05.013h.233l.025-.113a.652.652 0 01-.03-.28l.04-.407v-.701l-.015-1.176a3.14 3.14 0 00-.048-.504c-.088-.613-.267-1.03-.504-1.211a.644.644 0 00-.63-.028 1.39 1.39 0 00-.598.568c-.04.063-.077.129-.108.197a3.73 3.73 0 00-.093.227l-.043.123-.169.744-.174.777-.083.235c-.07.183-.17.353-.295.505-.117.163-.26.307-.421.426l-.234.144h-.681l-.043.048a.462.462 0 00.038.159z" fill="#231F20"/><path d="M7.401 76.438c0 .038 0 .076.02.111l.069.134.075.113.043.076.028.066a.504.504 0 00.368.267l.171.048a.291.291 0 00.111.013h.222l.176-.013a1.327 1.327 0 00.903-.474c.13-.149.234-.32.305-.505a3.84 3.84 0 00.229-.578l.159-.59.055-.166.033-.096.03-.129.05-.106c.052-.126.115-.247.19-.36a.328.328 0 01.252-.137.294.294 0 01.267.21.486.486 0 01.073.189l.045.192v.252c0 .113 0 .214-.017.308-.018.093 0 .189 0 .287 0 .099-.015.215-.02.308-.005.093 0 .184 0 .277v.548l.035.338c.083.212.267.204.504.204.151 0 .298.05.396-.11.088-.218.136-.45.14-.684 0-.058.016-.104.019-.134a.645.645 0 010-.068.183.183 0 010-.048v-1.436c0-.136 0-.27-.016-.398-.015-.129-.022-.252-.037-.399l-.063-.484a2.626 2.626 0 00-.303-.9 1.261 1.261 0 00-.572-.563h-.295c-.13.001-.257.025-.378.07-.38.144-.692.422-.88.782a2.145 2.145 0 00-.216.485 5.808 5.808 0 01-.06.214c0 .058-.029.141-.049.252l-.199.951-.073.253-.073.207c-.11.277-.297.516-.54.688l-.118.069-.055.025-.026.017h-.756l-.028.03-.055.056-.063.073-.043.053-.033.06-.022.049a.51.51 0 00.022.103z" fill="#9397CB"/><path d="M15.858 77.827h-.454l-.595-.088-.116-.048-.41-.222-.343-.204a1.9 1.9 0 01-.895-1.385c0-.371.459-.737.688-.85a1.88 1.88 0 01.456-.14 2.253 2.253 0 01-.095-.206 4.632 4.632 0 01-.333-1.781v-.533l.018-.065a.893.893 0 01.62-.616.755.755 0 01.252-.068l.194-.045.252-.013h.103a1.38 1.38 0 01.734.126c.103.06.197.136.277.225a.92.92 0 01.07-.089 1.173 1.173 0 01.885-.32 1.207 1.207 0 011.008.225.828.828 0 01.252.668.599.599 0 00.016.16l.02.277v.179a8.1 8.1 0 01-.202 1.796 11.983 11.983 0 01-.522 1.7c-.081.189-.19.364-.322.52-.25.308-.578.544-.948.686a1.845 1.845 0 01-.61.111zm.771-1.302a2.397 2.397 0 01-.44.306c.166-.07.317-.174.44-.306zm-2.614-.54a1.196 1.196 0 00.389.48l.103.06-.06-.088-.026-.048-.201-.426c0-.02-.033-.058-.056-.093h-.015a.782.782 0 00-.134.116zm1.233-.03l.02.03.035.038a.237.237 0 00.177.061.672.672 0 00.36-.131l.068-.046a1.406 1.406 0 01-.726-.085l.066.133zm-1.122-.075l-.032.012.032-.012zm.575-3.303v.328c-.01.486.076.97.252 1.423.072.186.187.353.335.487a.672.672 0 00.421.166.466.466 0 00.396-.252l.106-.156.048-.05.133-.187a.756.756 0 01.252-.207l.638-.268.048.858c0-.04.02-.08.028-.121a7.09 7.09 0 00.176-1.587v-.318a1.724 1.724 0 01-.023-.275.96.96 0 00-.211 0 .55.55 0 01-.091 0 .984.984 0 00-.204.015v.069l-.038.343-.018.287c0 .099-.012.197-.035.293-.02.086-.047.17-.08.252l-.018.038a.756.756 0 01-.698.411.615.615 0 01-.615-.572v-.198a.65.65 0 01.047-.19l.086-.296v-.141a.505.505 0 00-.143-.235.933.933 0 00-.253 0h-.284l-.255.083z" fill="#231F20"/><path d="M14.172 76.774a.79.79 0 00.106.085c.034.026.07.05.108.069l.227.126c.048.028.085.05.113.063.035.016.071.03.109.04l.206.07c.048.02.1.03.152.029l.219.012h.433c.124.002.247-.009.368-.033.47-.108.81-.444 1.026-1.009.063-.166.101-.252.109-.285.028-.079.064-.187.105-.325l.174-.654c.18-.65.276-1.32.283-1.995 0-.252.06-.583-.043-.74-.104-.156-.373-.163-.663-.166-.29-.002-.446 0-.555.194a1.286 1.286 0 00-.08.364 2.035 2.035 0 000 .29v.32l-.013.142-.043.126a.391.391 0 01-.413.27c-.141 0-.214-.086-.214-.253a.46.46 0 01.025-.151l.045-.146.04-.152a.444.444 0 00.03-.093.521.521 0 000-.07.91.91 0 00-.08-.306.676.676 0 00-.673-.47c-.12.007-.241.022-.36.044l-.172.037-.179.053a.404.404 0 00-.252.432v.436l.018.207c.018.141.035.252.048.326l.053.252c.022.09.05.181.075.272.026.091.06.182.096.275.247.61.612.916 1.094.916.06 0 .12-.006.18-.017a.614.614 0 00.153-.048c.092-.043.177-.1.252-.167a.504.504 0 00.108-.1l.093-.117a1.43 1.43 0 00.086-.116l.066-.098.12-.164a.143.143 0 01.104-.069l.073.023a.126.126 0 01.053.07v.302a1.851 1.851 0 01-.11.596 2.066 2.066 0 01-.323.553c-.135.17-.298.316-.482.43-.177.112-.383.17-.592.17a.8.8 0 01-.116 0c-.048 0-.093-.016-.131-.023l-.09-.04-.034-.018-.05-.02-.063-.033-.114-.081-.103-.088-.073-.091a.505.505 0 01-.086-.164l-.053-.174-.078-.195c-.065-.11-.116-.252-.295-.209a1.142 1.142 0 00-.388.144l-.053.06c-.058.081-.136.152-.136.253.015.26.227.547.56.83z" fill="#9397CB"/><path d="M21.24 77.844h-.094c-.917 0-1.17-.34-1.22-.626v-.07l.109-.873v-.205a.4.4 0 000-.065l.11-.926c-.3.092-.621.083-.915-.028l-.045-.023-.161-.098-.126-.124a1.242 1.242 0 01-.225-.345 1.063 1.063 0 01-.095-.454v-.228l.045-.612v-.533l.035-.252a1.21 1.21 0 01.036-.172.846.846 0 01.075-.267.814.814 0 01.817-.404.851.851 0 01.698.252c.088.1.148.22.177.349.143-.618.547-.808.811-.828.214-.04.862-.118 1.177.323.17.244.243.54.207.835v.568l-.171 1.821-.336 2.27c-.093.687-.622.715-.91.715zm-.353-.951c.083.011.167.017.252.017h.11l.384-2.75.103-1.183v-.633a.25.25 0 00-.023-.118.94.94 0 00-.285.015h-.02a.588.588 0 00-.053.196v.043l-.179.818a.923.923 0 01-.095.265.931.931 0 01-.835.532h-.058a.79.79 0 01-.211-.053.64.64 0 01-.154-.093l-.056-.053a1.01 1.01 0 01-.163-.253.874.874 0 01-.058-.207l-.028.57a.158.158 0 000 .066.5.5 0 00.045.08l.06.051h.059c.072 0 .144-.01.214-.03.075-.022.152-.039.23-.05.075-.007.152-.01.229-.008a.687.687 0 01.584.315c.068.092.11.198.127.31l.02.175v.224l-.018.212-.098.757a1.066 1.066 0 01-.02.126v.131l-.063.528z" fill="#231F20"/><path d="M20.587 76.423a3.45 3.45 0 00-.023.674c.043.126.52.194.633.194.189 0 .322.033.405-.174.018-.043.046-.273.078-.416l.038-.265.109-.848v-.055a.166.166 0 010-.061l.02-.151.148-1.214a.526.526 0 01.02-.134l.02-.164v-.128l.024-.184v-1.12c0-.064-.058-.389-.19-.457a1.198 1.198 0 00-.252-.05c-.236 0-.46-.023-.57.252l-.067.186-.038.157-.048.161-.03.182-.063.335a.527.527 0 01-.023.106c-.015.038-.03.081-.05.127a.557.557 0 01-.288.312.607.607 0 01-.252.046.202.202 0 01-.093-.043l-.096-.096-.05-.06c0-.02-.025-.04-.036-.061l-.03-.109v-1.041a.268.268 0 00-.284-.273c-.152 0-.318.025-.369.225a1.962 1.962 0 00-.032.252v1.209a.119.119 0 00-.06.11v.132a.619.619 0 00.158.438.476.476 0 00.192.132c.08.029.166.042.252.04h.164l.153-.033a1.04 1.04 0 01.318-.048.314.314 0 01.3.202.433.433 0 01.038.167l.02.186v.111l-.026.23-.1.701-.02.17v.148z" fill="#9397CB"/><path d="M26.253 77.755H25.9a1.658 1.658 0 01-.187 0l-.206-.03-.875-.164a1.968 1.968 0 01-.207-.046l-.252-.045-.32-.063a2.987 2.987 0 01-.368-.053 2.175 2.175 0 01-.252-.119 1.389 1.389 0 01-.252-.184.98.98 0 01-.126-.456v-3.709a.953.953 0 01.376-.843l.02-.017a.952.952 0 01.32-.212l.045-.013a.888.888 0 01.162-.023h.058a2.32 2.32 0 01.312-.015c.254-.009.507.038.741.137l.073.025c.38.124.398.37.419.681v.08a1.72 1.72 0 01-.018.321v.364s-.045.252-.103.562a.564.564 0 01.179-.217 1.206 1.206 0 011.26.063l.033.03-.038-.237-.025-.35a5.284 5.284 0 01.043-.727c.055-.227.252-.305.446-.404l.025-.012c.18-.064.369-.098.56-.099a1.008 1.008 0 011.023.815v.187c.022.109.034.22.035.33.047.472.06.945.04 1.418-.092.675-.24 1.34-.443 1.99a.901.901 0 01-.144.253.497.497 0 00-.043.058 1.218 1.218 0 01-.743.669h-.038l-.224.032a2.228 2.228 0 01-.194.03h-.043l-.716-.007zM23.697 76.6l.282.04.628.121.166.035.23.05.642.114c.053 0 .101.016.15.02h1.148l.142-.022.184-.028c.093-.03.171-.096.274-.298.033-.056.07-.11.111-.161l.036-.048c.174-.578.305-1.168.393-1.766a9.582 9.582 0 00-.038-1.307v-.04a.892.892 0 00-.02-.197.651.651 0 010-.224.252.252 0 00-.252-.18 2.244 2.244 0 00-.277.033l-.094.048a.312.312 0 00-.015.068l.028.15.038.466.166.948c.022.117.035.235.038.354v.13l-.02.172c.003.25-.048.497-.15.724a.908.908 0 01-.859.54.624.624 0 01-.504-.37l-.025-.043a.809.809 0 01-.149-.33.975.975 0 01-.839.756h-.171l-.253-.134-.176-.146-.035-.157a1.325 1.325 0 01-.192-.827c.043-.267.29-1.604.335-1.844v-.104c0-.078 0-.159.018-.252a.976.976 0 00.015-.179v-.083a.295.295 0 000-.048 1.009 1.009 0 00-.474-.088h-.33l-.053.047a1.13 1.13 0 01-.106.086c-.022.018-.047.035-.047.22v3.615l.052.063v.048l.003.028zm2.96-1.158a.129.129 0 000 .033.84.84 0 01.057.085.178.178 0 00.05-.065c.056-.138.083-.286.079-.434v-.046l.022-.234a1.538 1.538 0 00-.025-.217l-.017-.089a.859.859 0 01-.038.313l-.048.182-.038.275v.023a.785.785 0 01-.043.174zm-1.473-1.239a57.44 57.44 0 00-.181 1.01c.004.12.04.236.105.337a.354.354 0 00.086-.154v-.199l.028-.679-.018-.159a.509.509 0 000-.06.814.814 0 01-.012-.096h-.008zm.756.979v-.053a.828.828 0 01.02-.091l.028-.24.06-.227a.13.13 0 000-.07v-.036a.985.985 0 01.02-.171.749.749 0 00-.15 0 .057.057 0 010 .02l.022.159v.709z" fill="#231F20"/><path d="M23.591 76.872l.345.053.313.06.655.147.645.139c.095.02.191.032.288.038.108 0 .237.015.383.015.315 0 .542 0 .678-.02a1.2 1.2 0 00.602-.235.825.825 0 00.326-.37l.123-.301.108-.426.137-.42.085-.459c.042-.28.058-.562.048-.845l-.015-.41-.023-.384.02-.371-.03-.268c0-.037 0-.378-.537-.328-.537.05-.607.265-.615.31v.208l.058.252v.252l.079.656.052.318c0 .066-.012.136 0 .232.013.096 0 .17 0 .222v.131l-.015.056-.017.202a.995.995 0 01-.094.252.817.817 0 01-.373.404.46.46 0 01-.252.065c-.13 0-.232-.166-.31-.267a.842.842 0 01-.113-.414c.004-.055.01-.11.02-.164a.549.549 0 01.043-.124l.04-.217.05-.113.023-.08c.025-.061.025-.11.05-.188.044-.146.081-.305 0-.37-.08-.066-.571-.134-.705.037l.015.52-.02.093v.525a2.179 2.179 0 01-.08.432.726.726 0 01-.533.33h-.123s-.08 0-.275-.24a.67.67 0 01-.13-.62c.027-.18.367-2.27.367-2.27 0-.195.07-.157 0-.329a.53.53 0 00-.504-.373h-.33l-.33.03c-.108.065-.207.14-.298.227a.334.334 0 00-.108.253l-.015.232.015.504-.023 1.766.053 1.282c.023.013 0 .033 0 .058l.038.11.055.102a.308.308 0 00.154.093z" fill="#9397CB"/><path d="M30.92 77.842a1.82 1.82 0 01-.549-.103 2.24 2.24 0 01-.57-.295 2.081 2.081 0 01-.458-.424 1.161 1.161 0 01-.28-.628.686.686 0 010-.073v-.722l-.032-.194.012-.177-.025-.873.023-1.69.027-.139a1.038 1.038 0 011.167-1.009h.116c.252 0 .956.013 1.041.843 0 .06.018.113.028.164.02.088.03.177.035.267.006.039.01.077.013.116v.659l-.018.159a.96.96 0 01-.012.151 1.345 1.345 0 01-.015.139l-.016.088-.035.336.522-1.189c.15-.323.35-.622.592-.885l.32-.33.18-.167c.062-.056.135-.116.224-.187l.078-.05.343-.152h.145a.829.829 0 01.669.356 1 1 0 01.237.606l-.04 3.627-.059.316-.045.373c0 .038-.035.18-.038.207-.05.504-.416.787-1.079.795h-.045c-.668 0-.925-.24-1.028-.427a.885.885 0 01-.127-.378l-.07.139c-.112.21-.27.394-.464.534a1.26 1.26 0 01-.766.217zm-.927-1.528a.71.71 0 00.081.128c.072.089.157.166.252.23.103.075.216.136.335.179a.914.914 0 00.252.058.35.35 0 00.207-.05.678.678 0 00.194-.212l.101-.2.194-.504.154-.349a.822.822 0 01-.585.308.643.643 0 01-.527-.252 1.054 1.054 0 01-.116-.184 1.104 1.104 0 01-.053-.116l-.02-.056-.04-.33v-.19l.015-.42.06-.49a.174.174 0 000-.035v-.058l.013-.058v-.048l.018-.147v-.678a1.043 1.043 0 00-.023-.134c-.013-.076-.028-.154-.038-.252h-.28c-.178-.013-.178.017-.186.149v.058l-.028.143-.015 1.537.025.893v.126l.028.204v.654l.013.027-.03.069zm3.171.479c.065.006.13.006.194 0h.22c0-.073.035-.197.055-.28l.028-.305.055-.296.033-3.469-.141.122a3.69 3.69 0 00-.139.128l-.31.32c-.14.152-.26.322-.355.505l.083-.116h.38l.278.141.12.346.034.267a4.9 4.9 0 01-.182 1.186l-.34 1.093a.547.547 0 00-.023.123v.154l.01.08z" fill="#231F20"/><path d="M29.58 76.133a.632.632 0 00.043.252c.03.069.067.134.11.194.214.296.507.524.845.659.134.057.276.09.421.098l.083-.017.076-.03.116-.102.436-.451.05-.126.088-.227.084-.222.043-.124.032-.066.038-.075.043-.109.171-.386.2-.428.209-.44.169-.375.123-.253a.272.272 0 01.19-.11c.072 0 .13.062.173.194v.466a.936.936 0 01-.018.132c0 .05-.017.093-.022.133a.868.868 0 01-.036.139l-.06.21-.113.332a3.83 3.83 0 00-.253 1.123.555.555 0 000 .3.482.482 0 00.547.359c.215 0 .346 0 .447-.268 0-.028.047-.21.06-.252.013-.043.023-.084.035-.129l.167-.885-.018-3.255c-.025-.252-.118-.36-.28-.36a.682.682 0 00-.37.189 3.42 3.42 0 00-.338.32l-.108.126-.147.164-.126.177-.224.328-.083.14-.05.104-.31.757-.195.414a3.18 3.18 0 01-.209.373l-.07.094c-.03.043-.069.085-.109.133l-.191.182h-.06c-.233 0-.372-.144-.417-.434l-.015-.224v-.51a.272.272 0 010-.073l.035-.23.046-.376.017-.406a3.256 3.256 0 00-.027-.474 3.207 3.207 0 00-.06-.369c-.112-.456-.394-.368-.694-.368a1.91 1.91 0 00-.207.02c-.252.071-.297.452-.297.452s0 .048-.015.09c-.015.044 0 .079-.015.11v2.34a.226.226 0 01.015.099l.035.171v.217l-.015.127-.02.171.025.265z" fill="#9397CB"/><path d="M37.517 77.843h-.186l-.852-.05-.288-.099a1.677 1.677 0 01-.277-.126 2.224 2.224 0 01-.84-.73 1.796 1.796 0 01-.251-.564l-.018-.06v-.568l-.013-.253v-.315l.04-.285a1.45 1.45 0 01.041-.17l.02-.062v-.343l.018-.24.028-.237.083-.815.015-.356a.576.576 0 01.121-.348c.197-.32.496-.566.85-.696.151-.06.31-.103.47-.129.183-.03.368-.044.553-.043h1.613l.554.06.06.023a.857.857 0 01.39.344.534.534 0 00.044.068l.018.022a.949.949 0 01.124.346l.025.119.017.189-.032.303a1.043 1.043 0 01-.298.658c-.136.137-.3.243-.481.31a1.494 1.494 0 01-.504.056h-1.613l-.026.02-.025.045.429.046c.27 0 .86.045.99.63v.245a.758.758 0 01-.43.777h.72c.673.048.98.505.98.904v.05c0 .31 0 1.138-.917 1.18-.11 0-.252.026-.368.041l-.136.015-.29.018-.358.02zm-.723-.959l.56.025h.521l.252-.012h.086c.149-.023.298-.038.449-.046h.02V76.6a.374.374 0 00-.104-.023H36.89a.695.695 0 01-.575-.348l-.038-.065-.086-.182-.04-.252a.782.782 0 01.66-.795.756.756 0 01.187-.038l-.313-.03-.055-.018-.11-.04a1.188 1.188 0 01-.14-.068l-.055-.035a.885.885 0 01-.27-.328.93.93 0 01-.083-.396v-.195l.068-.184a.733.733 0 01.093-.19l.094-.123a.946.946 0 01.708-.34h1.828a.345.345 0 00.128-.086.438.438 0 00.033-.129v-.338l-.028-.041-.32-.033h-1.533a2.508 2.508 0 00-.395.028 1.432 1.432 0 00-.285.08.757.757 0 00-.39.303v.3l-.13 1.456v.3l-.035.086a.537.537 0 01-.03.073V75l-.028.21v.867a.773.773 0 00.104.214l.017.028c.13.182.303.328.504.424a.85.85 0 00.124.06l.194.066.1.015z" fill="#231F20"/><path d="M35.35 76.1c.04.135.092.267.153.394.234.365.592.634 1.008.757.064.016.13.026.195.03l.219.02h.736l.363-.013.22-.03.251-.023c.55-.113.421-.206.504-.4a.662.662 0 00.046-.266c0-.191-.056-.325-.419-.368l-.35-.033H38.2l-.146-.012H36.89a.38.38 0 01-.285-.162l-.06-.126-.018-.11v-.074a.366.366 0 01.055-.215.287.287 0 01.176-.118l.137-.025.436-.081.146-.03.098-.04.134-.069a.252.252 0 00.085-.21c0-.191-.027-.325-.28-.375h-.19a.277.277 0 01-.079 0h-.176l-.184-.015-.17-.025a.663.663 0 01-.267-.142.418.418 0 01-.105-.32.85.85 0 01.042-.253.616.616 0 01.593-.42H38.6c.1.004.2-.008.295-.036.3-.111.28-.174.378-.381.033-.117.05-.239.048-.36a.644.644 0 00-.27-.536l-.116-.015h-.055a.473.473 0 01-.08 0l-.157-.033-.176-.017h-.172l-.343-.015h-.375l-.615.015h-.106l-.154.017-.252.03c-.142.02-.28.065-.406.134a1.083 1.083 0 00-.486.714 2.504 2.504 0 00-.07.63v1.126a.329.329 0 00-.061.096c-.018.043-.036.08-.048.121l-.018.088v1.174l-.013.002z" fill="#9397CB"/><path d="M41.875 77.959a.917.917 0 01-.61-.295l-.07-.07-.094-.253a.739.739 0 01-.055-.174.76.76 0 01-.02-.182v-.033a.867.867 0 01.34-.86c.166-.105.351-.174.545-.204l.231-.038.172-.056.04-.09.063-.187.063-.252.053-.285.24-1.42a3.893 3.893 0 01.529-1.451 1.525 1.525 0 011.316-.757 1.359 1.359 0 011.033.504c.19.202.347.433.464.684l.164.358c.043.114.08.23.11.348l.056.253.03.234.043 1.413.056.252h.59a.767.767 0 01.393.05.847.847 0 01.373.415l.083.166c.06.134.103.276.126.421l.093.505-.186.174a1.78 1.78 0 01-.434.308 2.7 2.7 0 01-.474.184l-.264.073-.217.033-.666.058-.995.03-2.33.046a8.33 8.33 0 00-.66.058.706.706 0 01-.13.04zm.083-.981v.03c.205-.023.505-.043.656-.053l3.529-.09.544-.061.169-.05c.11-.031.217-.072.32-.122l.023-.013a.639.639 0 00-.04-.151l-.056-.114h-.943l-.224-.156-.174-.252-.076-.139-.108-.505-.023-.199v-.176a1.02 1.02 0 010-.147l-.02-.991-.017-.119-.04-.174a2.666 2.666 0 00-.071-.224l-.139-.303c-.07-.157-.164-.3-.28-.426l-.033-.036a.446.446 0 00-.345-.197.598.598 0 00-.534.33 3.002 3.002 0 00-.394 1.103l-.302 1.766-.08.32-.091.253-.124.252a.865.865 0 01-.396.328l-.047.02-.318.099-.275.045a.445.445 0 00-.103.026v.03c0 .007.01.068.012.096z" fill="#231F20"/><path d="M47.537 76.335c-.066-.184-.119-.318-.298-.358a2.77 2.77 0 00-.418-.013l-.492.018c-.181-.066-.295-.253-.348-.57l-.042-.31-.03-.758v-.482l-.018-.171a.68.68 0 000-.078c0-.018 0-.053-.023-.104l-.151-.492-.07-.169a2.361 2.361 0 00-.286-.504 1.029 1.029 0 00-.55-.409.605.605 0 00-.168-.02 1.032 1.032 0 00-.9.532c-.224.381-.37.803-.428 1.241l-.026.111-.03.147-.02.126-.04.33-.126.878-.03.152a.34.34 0 01-.038.123l-.03.119a.917.917 0 01-.376.62.846.846 0 01-.252.079l-.273.055a.87.87 0 00-.257.09c-.063.036-.166.059-.209.127a.505.505 0 00.043.522c.023.025.103.15.141.167a.65.65 0 00.252.022h.421a.267.267 0 01.116-.035l.366-.05h.317l3.116-.068.287-.048.315-.076c.188-.03.367-.105.52-.22a.233.233 0 00.093-.161 1.063 1.063 0 00-.058-.363zm-2.367-1.38l-.02.159-.048.252-.048.237-.023.147a.328.328 0 01-.143.201.36.36 0 01-.232.091.64.64 0 01-.434-.146.53.53 0 01-.179-.424v-.096l.013-.058v-.02l.015-.05.028-.04.221-.93c.063-.189.17-.284.313-.284a.465.465 0 01.42.267c.081.15.121.317.117.487v.207z" fill="#9397CB"/><path d="M44.552 76.254a.894.894 0 01-.6-.207.787.787 0 01-.264-.615v-.106a.288.288 0 010-.046v-.043a.4.4 0 010-.065l.015-.05a.43.43 0 01.032-.069l.21-.88c.14-.422.41-.48.56-.48a.71.71 0 01.637.394c.104.187.157.399.151.613v.22a.16.16 0 010 .035l-.07.419-.068.376a.676.676 0 01-.626.504h.023zm-.36-.903v.08a.289.289 0 00.09.235.4.4 0 00.27.084.126.126 0 00.073-.033c.05-.036.053-.053.056-.06l.02-.132.113-.626v-.201a.714.714 0 00-.083-.361c-.075-.132-.144-.142-.202-.142-.058 0-.068.096-.075.114l-.214.906a.206.206 0 01-.038.083v.015l-.01.038zm5.248 2.493h-.099a1.007 1.007 0 01-.877-.326 1.636 1.636 0 01-.27-.93v-.402l.015-.366v-.512l.074-2.492c.07-.345.258-.655.531-.876.122-.097.254-.182.394-.252.154-.073.313-.135.476-.187l.33-.103.504-.086c.056 0 .121-.018.184-.023a1.4 1.4 0 01.172 0l.504-.027.204.02c.426.11.834.28 1.212.504.247.137.432.364.517.633.046.13.073.267.078.404v.222a1.839 1.839 0 01-.116.669 2.45 2.45 0 01-.683 1.057 1.815 1.815 0 01-.577.353l-.252.073-.179.03-.562.122a1.763 1.763 0 00-.49.184.267.267 0 00-.158.252v.023l.015.053.21.572.035.215v.065a1.34 1.34 0 01-.03.43 1.061 1.061 0 01-.328.504 1.287 1.287 0 01-.834.197zm-.109-.934h.06c.1.003.201-.001.3-.012 0 0 .016-.033.023-.056.008-.023 0-.08 0-.131l-.012-.078-.018-.066-.197-.52a.624.624 0 01-.035-.204v-.07a1.19 1.19 0 01.593-1.04c.24-.142.503-.246.776-.308l.756-.154.139-.045a.853.853 0 00.27-.16c.194-.177.338-.403.415-.655.025-.063.044-.128.056-.194a.795.795 0 00.012-.154v-.222a.531.531 0 00-.03-.129.225.225 0 00-.073-.11 4.098 4.098 0 00-.918-.402h-.31l-.227.015h-.1l-.119.015-.466.078-.252.079a2.54 2.54 0 00-.353.138 1.28 1.28 0 00-.224.134.545.545 0 00-.187.3l-.07 2.637v.23l-.013.365v.384a.97.97 0 00.055.32l.15.015z" fill="#231F20"/><path d="M52.452 72.213a2.403 2.403 0 00-.956-.376h-.729l-.09.02-.252.038a2.371 2.371 0 00-1.32.55 1.261 1.261 0 00-.154.179.815.815 0 00-.104.197l-.017.3-.086 3.345c0 .12.009.241.028.36a.56.56 0 00.282.422c.112.04.232.055.35.043a.871.871 0 00.535-.121.62.62 0 00.153-.48s-.03-.098-.03-.108c0-.01-.028-.136-.028-.136l-.088-.212-.085-.212-.033-.136v-.094a.791.791 0 01.38-.704 1.795 1.795 0 01.598-.252l.252-.058.438-.09.22-.059.075-.017a.362.362 0 00.076-.033.43.43 0 00.174-.101l.176-.139c.058-.047.11-.1.157-.159l.123-.138a1.464 1.464 0 00.28-.46c.017-.035.033-.073.048-.11.012-.04.02-.08.02-.122.017-.089.023-.18.02-.27a1.048 1.048 0 00-.413-.867zm-1.16 1.438a.769.769 0 01-.252.113h-.156l-.151-.015a.38.38 0 01-.177-.09.28.28 0 01-.073-.213.359.359 0 01.053-.202l.056-.093.073-.07a.65.65 0 01.239-.127l.156-.015h.058l.096.03c.05.008.097.029.136.06a.253.253 0 01.139.253.411.411 0 01-.197.368z" fill="#9397CB"/><path d="M50.836 73.999h-.023l-.151-.015h-.038a.68.68 0 01-.287-.15.546.546 0 01-.156-.4.607.607 0 01.095-.341l.05-.083a.252.252 0 01.041-.05l.073-.074.02-.015a.835.835 0 01.338-.174h.035l.237-.013a.225.225 0 01.07 0l.097.028a.504.504 0 01.206.093.503.503 0 01.253.462.666.666 0 01-.323.57 1.029 1.029 0 01-.323.149h-.196l-.018.013zm-.108-.505h.221a.611.611 0 00.147-.076c.085-.055.093-.106.093-.146a.055.055 0 000-.03.179.179 0 01-.045-.03h-.023l-.104-.023h-.11a.358.358 0 00-.121.068l-.038.038-.04.065a.121.121 0 00-.018.071.16.16 0 000 .04l.038.023zm4.806 4.296h-.453l-.608-.086-.113-.048-.414-.222-.343-.205a1.726 1.726 0 01-.393-.33l-.07-.076a1.327 1.327 0 01-.456-.875 1.07 1.07 0 01.252-.588l.025-.038c.134-.191.327-.333.55-.404a1.72 1.72 0 01.337-.108 1.84 1.84 0 01-.068-.151 4.622 4.622 0 01-.333-1.782v-.53l.018-.062a.896.896 0 01.627-.621c.071-.029.172-.061.303-.098l.06-.018h.316c.297-.024.596.03.867.156.1.057.191.13.27.215a.901.901 0 01.143-.187c.233-.19.53-.28.83-.252.062 0 .124.005.186.015l.348.073.047.025.069.028a.805.805 0 01.526.598c.026.083.045.167.058.252l.033.338v.18c0 .604-.067 1.206-.202 1.796-.13.579-.305 1.147-.521 1.7a2.294 2.294 0 01-1.27 1.206c-.2.068-.41.102-.62.098zm.774-1.302a2.335 2.335 0 01-.282.209 1.506 1.506 0 01-.162.096c.168-.07.32-.173.444-.305zm-2.674-.505c.04.05.13.149.191.212l.073.083a.847.847 0 00.184.16l.104.06a1.042 1.042 0 01-.06-.086l-.028-.05-.202-.424a1.777 1.777 0 00-.07-.14l-.056.021-.048.03-.028.043-.06.091zm1.288-.055c.009.01.017.02.025.032l.033.033a.22.22 0 00.179.063.672.672 0 00.358-.13l.068-.046a1.36 1.36 0 01-.726-.086l.063.134zm-.545-3.37v.324c-.009.487.077.97.252 1.423.073.187.188.353.336.487a.678.678 0 00.42.17.464.464 0 00.396-.253l.106-.156.048-.048.136-.192a.757.757 0 01.252-.202l.618-.277.05.857c0-.04.02-.08.028-.12.12-.521.18-1.053.179-1.588v-.353a1.309 1.309 0 00-.03-.141v-.013l-.056-.022-.179-.038h-.048a1.373 1.373 0 00-.181 0c0 .028-.018.078-.03.144l-.028.272-.018.29a1.506 1.506 0 01-.116.545l-.017.038a.757.757 0 01-.699.411.615.615 0 01-.615-.57v-.204a.658.658 0 01.048-.187l.086-.293v-.143a.396.396 0 00-.123-.195 1.18 1.18 0 00-.406-.04h-.197a1.14 1.14 0 00-.141.048l-.07.025z" fill="#231F20"/><path d="M53.848 76.736c.032.032.068.06.106.086.034.026.07.049.108.068l.227.126a.967.967 0 00.114.063c.034.017.07.03.108.04l.207.074a.43.43 0 00.15.025l.218.015h.436c.123.001.247-.01.368-.035.468-.106.81-.443 1.026-1.01.063-.163.098-.252.108-.282.03-.08.063-.19.103-.328l.174-.654c.183-.65.279-1.32.285-1.995a1.17 1.17 0 00-.116-.648.676.676 0 00-.59-.253.534.534 0 00-.55.278.994.994 0 00-.082.28c-.015.096-.02.193-.015.29v.32l-.013.142-.043.126a.39.39 0 01-.413.27c-.142 0-.215-.086-.215-.252a.514.514 0 01.026-.15l.042-.148.046-.15c.018-.047.023-.08.028-.095v-.086a1.03 1.03 0 00-.079-.302.659.659 0 00-.489-.472c-.045 0-.277-.015-.327-.015l-.21.017-.186.036-.11.037-.074.026a.88.88 0 00-.146.108.277.277 0 00-.08.116v.676l.014.207c.02.141.036.252.048.326l.05.252c.023.09.054.182.079.272.025.091.058.182.096.275.247.61.61.914 1.09.914a.994.994 0 00.182-.018.792.792 0 00.154-.045c.091-.045.176-.102.252-.17a.443.443 0 00.109-.1l.093-.116a.97.97 0 00.086-.116l.065-.099.121-.164c.04-.048.073-.068.103-.068l.076.023a.149.149 0 01.05.07v.315a1.624 1.624 0 01-.113.596c-.04.104-.088.204-.144.3a1.937 1.937 0 01-.658.694 1.098 1.098 0 01-.594.172.824.824 0 01-.111-.013 1.278 1.278 0 01-.134-.02l-.088-.043-.035-.018-.053-.02-.06-.033-.112-.078-.105-.088-.074-.09a.503.503 0 01-.085-.165l-.053-.176-.078-.195c-.066-.11-.187-.313-.35-.234a1.871 1.871 0 00-.334.169l-.052.063c-.058.078-.15.171-.15.252.016.278.243.542.573.825z" fill="#9397CB"/><path d="M60.999 77.843h-.53l-.272-.02-.252-.043a2.871 2.871 0 01-.373-.088c-.141-.046-.28-.1-.416-.161l-.035-.018-.252-.151-.272-.22a1.913 1.913 0 01-.328-.366l-.015-.027c-.11-.23-.17-.482-.174-.737a.909.909 0 01.252-.616c.143-.145.315-.258.504-.333.144-.088.306-.14.474-.151a.862.862 0 01.852.603c.028.063.098.212.235.47a.153.153 0 00.03.037c.212 0 .267-.078.307-.162a.695.695 0 00.043-.128.199.199 0 000-.038l-.31-.139-.086-.053a.843.843 0 01-.406-.736c0-.15.038-.297.111-.427l.028-.045.17-.225.228-.252.053-.073a.427.427 0 00.026-.046l.022-.047-.325.386a1 1 0 01-.166.15 1.926 1.926 0 01-.204.135l-.069.035a.98.98 0 01-.46.139 1.99 1.99 0 01-1.052-.588.833.833 0 01-.164-.444v-.038c-.001-.14.023-.278.07-.409a.991.991 0 01.167-.282c.233-.313.547-.556.908-.704a4.712 4.712 0 011.091-.366l.456-.088.207-.028c.09 0 .166-.013.234-.013.386-.006.76.136 1.044.396a1.408 1.408 0 01.456 1.027c0 .134-.01.267-.03.399a1.83 1.83 0 01-.106.378c-.099.263-.26.497-.471.681l-.167.142.504.388c.103.083.194.18.268.29.08.112.144.234.189.364.049.14.073.29.073.439a1.545 1.545 0 01-.678 1.261c-.18.133-.377.243-.585.328-.206.084-.42.146-.638.187l-.166.027zm-.235-.933h.192l.086-.013c.15-.029.295-.073.436-.13.13-.055.254-.124.368-.208a.612.612 0 00.305-.504.473.473 0 00-.088-.262.67.67 0 00-.096-.107l-.235-.186v.04c0 .13-.014.26-.04.386-.025.121-.064.24-.118.35a1.194 1.194 0 01-.81.634zm-1.207-.224c.095.043.193.08.292.113.046.015.092.028.14.038a1.043 1.043 0 01-.392-.381l-.015-.028c-.116-.22-.209-.406-.27-.54a.045.045 0 000-.023l-.025.013-.083.04a.72.72 0 00-.181.099h-.013c.007.095.03.189.066.277.025.028.123.121.163.16l.033.032.124.091.161.109zm1.389-1.946l.113.048a.68.68 0 01-.032-.141l-.081.093zm.645-1.478v.177c.002.084-.005.169-.02.252a.369.369 0 010 .055.782.782 0 00.23-.317v-.026a.862.862 0 00.052-.184 1.76 1.76 0 00.018-.252.442.442 0 00-.151-.336.59.59 0 00-.416-.154h-.139l-.14.018h-.034c.104.02.201.066.283.134a.668.668 0 01.221.272.77.77 0 01.096.361zm-2.472.111c.093.064.192.12.294.169l.048-.025.099-.06.025-.023.222-.253.128-.169a1.36 1.36 0 01.38-.353 4.15 4.15 0 00-.6.227 1.26 1.26 0 00-.53.381l-.031.04c-.018.023-.03.043-.04.058-.01.016.005-.007.005.008z" fill="#231F20"/><path d="M58.645 76.017c-.016.47.294.822.801 1.042.264.115.545.187.832.214l.227.023h.377l.187-.02.197-.043.202-.06.204-.079a.876.876 0 00.189-.086c.442-.232.662-.54.66-.925a.916.916 0 00-.325-.707 3.01 3.01 0 00-.237-.182l-.272-.186a1.713 1.713 0 01-.118-.094.748.748 0 01-.091-.093.305.305 0 01-.058-.106.367.367 0 01-.023-.124.54.54 0 010-.113.642.642 0 01.053-.101l.07-.108.084-.084.209-.189a1.323 1.323 0 00.418-.79 1.77 1.77 0 00.018-.252.852.852 0 00-.083-.345 1.504 1.504 0 00-.09-.157.502.502 0 00-.122-.113.944.944 0 00-.663-.238 3.75 3.75 0 00-1.832.44c-.09.048-.175.105-.252.171-.078.06-.149.129-.212.204l-.068.089-.06.055-.033.06a.572.572 0 00-.079.122.275.275 0 00-.027.123c0 .111.065.16.148.253.14.125.302.224.477.29a.836.836 0 00.55-.275l.136-.134.199-.207.34-.335a.166.166 0 01.108-.046h.116a.36.36 0 01.328.152.605.605 0 01.06.166l.02.202a1.106 1.106 0 01-.19.62l-.092.132-.103.12-.252.273-.05.081v.083c0 .062.02.121.055.172l.068.078c.07.074.156.13.252.162l.192.09.14.079a.123.123 0 01.059.073v.585a.348.348 0 01-.111.237.83.83 0 01-.252.19c-.114.062-.235.11-.36.14l-.185.028a.524.524 0 01-.466-.277l-.174-.368a1.67 1.67 0 00-.252-.376c-.171-.182-.55.017-.66.113a.429.429 0 00-.184.35z" fill="#9397CB"/><path d="M65.175 77.843a2.157 2.157 0 01-.43-.038l-.343-.076a1.603 1.603 0 01-.943-.906 3.34 3.34 0 01-.103-.28 2.892 2.892 0 01-.073-.3l-.053-.333v-.272l-.015-.85.015-.197.14-1.96.051-.15a.609.609 0 01.015-.067 2.07 2.07 0 01.07-.268c.268-.724.757-.714.987-.709h.057a.922.922 0 01.8.36.856.856 0 01.128.36v.037c.04.118.06.242.058.366v.731c0 .101-.023.222-.043.349a4.528 4.528 0 00-.038.608l.015.1.04.144h1.054a.962.962 0 01.815.454l.11.184.05.124c.025.058.044.118.059.18.017.082.025.167.023.252a1.988 1.988 0 01-.784 1.627 2.626 2.626 0 01-1.662.53zm-.476-1.01l.232.048c.083.014.168.02.252.018.389.015.77-.104 1.081-.338a1.046 1.046 0 00.424-.89v-.069l-.033-.075-.05-.084-.026-.025h-1.232a.66.66 0 01-.527-.275 1.009 1.009 0 01-.176-.343l-.084-.288-.027-.237a6.032 6.032 0 01.048-.782c.017-.113.03-.2.035-.277.005-.078 0-.21 0-.366v-.298a.294.294 0 000-.086.75.75 0 01-.028-.103h-.143c0 .02-.026.053-.046.103a1.371 1.371 0 00-.033.142c-.015.065-.027.123-.037.154l-.018.05-.144 2.018.023 1.01.04.231a1.988 1.988 0 00.116.379.69.69 0 00.353.394v-.01z" fill="#231F20"/><path d="M66.905 75.257a.48.48 0 00-.394-.209h-1.184c-.124 0-.232-.098-.328-.293a.39.39 0 01-.033-.1l-.04-.13c-.013-.037-.018-.075-.025-.113-.008-.037 0-.065 0-.096l.015-.375v-.177a1.73 1.73 0 01.025-.184l.038-.35v-.763l-.043-.164a.384.384 0 00-.08-.222.489.489 0 00-.308-.09c-.232 0-.404.017-.55.423-.045.123-.08.25-.105.379-.026.113-.04.229-.043.345v1.098l-.016.09-.032.22c-.015.106-.03.194-.033.252-.008.055-.013.11-.015.164l.015.563v.164l.018.11.037.268.058.253a1.172 1.172 0 00.08.225 1.233 1.233 0 001.239.736c.127.001.254-.007.38-.025a2.05 2.05 0 00.925-.389c.173-.136.314-.308.414-.505.104-.213.155-.448.148-.686a.702.702 0 00-.163-.419zm-1.288 1.01a.505.505 0 01-.22.088h-.156a.252.252 0 01-.3-.29c0-.052.006-.104.018-.154a.322.322 0 01.068-.124.313.313 0 01.252-.11.63.63 0 01.317.083.36.36 0 01.121.295.253.253 0 01-.1.207v.005z" fill="#9397CB"/><path d="M65.244 76.653a.545.545 0 01-.6-.578c0-.08.009-.158.027-.235a.641.641 0 01.121-.232.756.756 0 01.989-.068.635.635 0 01.229.525.529.529 0 01-.197.419.795.795 0 01-.37.156l-.197.013h-.002zm-.089-.505c.025.004.05.004.076 0h.159a.297.297 0 00.11-.048v-.025a.192.192 0 00-.03-.124c-.103-.053-.252-.073-.297 0a.186.186 0 00-.02.04.416.416 0 000 .104.18.18 0 000 .063l.002-.01zM71.522 78a.756.756 0 01-.305-.058l-.073-.025a.954.954 0 01-.645-.639 2 2 0 01-.131-.772v-.1l-.063.105-.19.381a2.355 2.355 0 01-.22.33 2.079 2.079 0 01-.641.543.992.992 0 01-.905.124c-.093-.03-.383-.129-.804-.99l-.058-.118.073-.577.066-.094c.025-.032.05-.068.073-.103.195-.332.49-.593.844-.744l.08-.048a1.668 1.668 0 01-.251-.091l-.036-.018a1.4 1.4 0 01-.703-1.294v-.252l.066-.21.058-.108a4.658 4.658 0 011.325-1.464 3.474 3.474 0 011.954-.537c.32-.007.639.049.938.164a1.808 1.808 0 011.06 1.284 3.65 3.65 0 01.102.911v.368l-.03.359-.081.835-.03.953-.036.46-.058.398a2.183 2.183 0 01-.05.187v.02a.672.672 0 01-.18.426 1.069 1.069 0 01-.836.366.774.774 0 00-.103 0 1.566 1.566 0 01-.21.028zm-.272-1.592v.098c-.007.147.015.294.066.432.015.046.037.09.065.128l.048.013.101.038h.096c.067-.009.134-.014.201-.015a.17.17 0 00.144-.043.832.832 0 01.03-.139c0-.033.02-.07.03-.11l.048-.334.03-.396.056-1.355.083-.794V73.6a2.599 2.599 0 00-.076-.686.916.916 0 00-.544-.681 1.582 1.582 0 00-.597-.096 2.605 2.605 0 00-1.467.39c-.43.316-.789.717-1.054 1.179v.114a.533.533 0 00.252.52c.108.04.22.067.336.08h.738l.313.27.065.272v.053c0 .068-.01.135-.03.2l.121-.099h.313a.756.756 0 01.386.08.563.563 0 01.3.558c0 .048 0 .14-.031.414l-.023.24zm-2.573.658c.048-.03.099-.056.15-.08a1.22 1.22 0 00.366-.316c.049-.06.093-.124.131-.191l.205-.407.231-.393c-.08.051-.164.095-.252.131l-.504.197a.56.56 0 01-.118.063.96.96 0 00-.466.431l-.023.03-.013.091c.083.158.18.306.293.444z" fill="#231F20"/><path d="M72.599 73.441c0-.058 0-.116-.018-.179a2.103 2.103 0 00-.325-.946 1.354 1.354 0 00-1.187-.532 3.315 3.315 0 00-.636.058 4.03 4.03 0 00-.602.151 2.2 2.2 0 00-.572.275l-.252.194a1.126 1.126 0 00-.22.22l-.196.252-.194.275c-.13.173-.2.382-.202.598-.003.117.01.234.038.348 0 .033.03.073.055.131.019.041.04.08.063.119a.64.64 0 00.348.267l.139.048.096.015a.5.5 0 00.1 0l.129.02h.19l.269.018c.174.03.252.096.252.2 0 .186-.154.348-.471.484l-.442.194-.196.083c-.483.227-.723.52-.721.878 0 .05.285.74.645.757.467.018.708-.28.94-.676.076-.151.129-.252.152-.325l.047-.104.028-.078.07-.152.066-.113a1.31 1.31 0 01.252-.343.564.564 0 01.388-.136c.23 0 .343.106.343.323 0 .068-.015.201-.04.398l-.02.212v.094l.015.191.086.343c.153.505.438.427.826.427a.926.926 0 00.411-.154l.078-.15a1.44 1.44 0 00.05-.216l.235-2.95v-.34a1.026 1.026 0 01-.017-.179zm-1.26.028c-.099.305-.253.457-.44.457a.658.658 0 01-.392-.117.479.479 0 01-.116-.5l.032-.06.084-.088.075-.078a.756.756 0 01.409-.164l.13.038a.29.29 0 01.106.065.237.237 0 01.129.212l-.018.235z" fill="#9397CB"/><path d="M70.902 74.178a.932.932 0 01-.54-.162l-.027-.022a.728.728 0 01-.179-.77.097.097 0 01.015-.033l.033-.063a.2.2 0 01.038-.053l.166-.169c.01-.01.02-.02.033-.028a.965.965 0 01.623-.211l.13.037h.03a.566.566 0 01.162.099.483.483 0 01.224.411l-.017.252a.245.245 0 010 .058c-.184.545-.477.654-.69.654zm-.234-.565c.07.042.152.063.234.06.088 0 .156-.161.192-.252l.012-.177a.326.326 0 01-.05-.037h-.018l-.073-.02a.622.622 0 00-.217.103l-.123.133a.099.099 0 000 .028.252.252 0 00.043.16v.002z" fill="#231F20"/></svg>