<svg width="32" height="32" viewBox="0 0 32 32" fill="none" xmlns="http://www.w3.org/2000/svg">
<path fill-rule="evenodd" clip-rule="evenodd" d="M6 6H31V31H6V6ZM21.6464 16.6738C22.0114 16.3094 22.0114 15.7181 21.6464 15.3537C21.282 14.9893 20.6907 14.9893 20.327 15.3537L15.3542 20.3264C14.9899 20.6908 14.9899 21.2821 15.3542 21.6465C15.7186 22.0108 16.3099 22.0108 16.6743 21.6465L21.6464 16.6738ZM13.2798 23.7203C14.0123 24.4522 15.203 24.4522 15.9349 23.7203L19.455 20.1964C19.7419 21.379 19.4238 22.6784 18.5006 23.6015L17.1587 24.9441C15.7499 26.3529 13.4654 26.3529 12.0566 24.9441C10.6478 23.5353 10.6478 21.2508 12.0566 19.842L13.3985 18.5001C14.3223 17.5763 15.6218 17.2582 16.8043 17.545L13.2798 21.0652C12.5479 21.7971 12.5479 22.9884 13.2798 23.7203ZM18.5006 13.3986L19.8419 12.0561C21.2507 10.6479 23.5352 10.6479 24.9434 12.0567C26.3522 13.4661 26.3522 15.75 24.9434 17.1588L23.6021 18.5007C22.6789 19.4239 21.382 19.7439 20.1988 19.457L23.7208 15.935C24.4534 15.2031 24.4534 14.0118 23.7208 13.2799C22.9889 12.548 21.7983 12.548 21.0657 13.2799L17.5443 16.8019C17.2568 15.6193 17.5768 14.3224 18.5006 13.3986Z" fill="#5A3F98"/>
<path d="M1 1V27.25H3.5V3.5H27.25V1H1Z" fill="#5A3F98"/>
</svg>
