<svg width="24" height="24" viewBox="0 0 24 24" fill="none" xmlns="http://www.w3.org/2000/svg">
<path d="M22.9565 4.25837C23.0101 3.56802 22.9991 1.76133 22.9991 1.05965C22.9991 1.05965 18.7379 1.04502 18.0558 1.01718C16.6786 0.960557 15.2819 1.06225 13.9116 1.05965C12.9386 1.05776 11.9805 1.08726 10.9967 1.05965C10.3748 1.04196 1.01377 1.1453 1.01377 1.1453C0.996365 1.75638 1.0761 8.96323 1.01777 10.4532C0.953557 12.0941 1.08598 18.3116 1.06034 19.7277C1.04576 20.5374 1.14196 22.0063 1.04129 22.8629L1.06034 23.2381C4.20792 23.2381 8.31173 23.3034 11.5242 23.281C11.5106 22.0145 11.5722 19.8695 11.5176 18.1993C11.5064 17.8562 11.4948 14.2431 11.4551 14.0529C11.4551 14.0529 9.93351 14.0635 9.23964 14.0675C9.23964 14.0675 9.19307 12.734 9.19307 12.2834C9.19307 11.8403 9.19307 11.3976 9.19307 10.9546C9.19307 10.9546 10.9628 10.8583 11.4603 10.8146C11.4603 10.8146 11.5296 9.12343 11.5988 8.57534C11.6778 7.9494 11.695 7.31708 12.0617 6.76286C12.733 5.74951 13.4 4.85624 14.6344 4.58656C15.1011 4.48464 18.1821 3.87733 18.2966 4.37658L18.2275 7.38433C17.3901 7.38433 16.3877 7.29868 15.5334 7.93571C15.0576 8.2908 14.927 8.58667 14.8786 9.16991C14.8503 9.50966 14.8435 10.8842 14.8435 10.8842C15.2947 10.9491 15.9624 10.9206 16.4472 10.8842C16.9952 10.8434 18.4013 10.9892 18.4013 10.9892C18.4013 11.8988 18.3651 13.9998 18.3684 14.0892C17.8083 14.08 17.2965 14.0965 16.6457 14.0682C16.5401 14.0633 14.8452 14.0888 14.8501 14.1194C14.9731 14.8759 14.7962 15.679 14.8068 16.4437C14.8129 16.8894 14.9437 21.7635 14.8837 23.2499C15.6331 23.2435 16.3848 23.2381 17.1495 23.2381C18.0515 23.2381 22.0676 23.2386 22.9661 23.2381C22.9661 23.2381 22.8163 6.06897 22.9565 4.25837Z" fill="#333235"/>
</svg>
