<svg width="32" height="32" viewBox="0 0 32 32" fill="none" xmlns="http://www.w3.org/2000/svg">
<path d="M30.9407 5.38627C31.0138 4.45695 30.9987 2.02487 30.9987 1.0803C30.9987 1.0803 25.188 1.06061 24.2579 1.02313C22.3799 0.946904 20.4754 1.08379 18.6067 1.0803C17.2798 1.07776 15.9735 1.11746 14.6318 1.0803C13.7838 1.05648 1.01878 1.19559 1.01878 1.19559C0.995043 2.0182 1.10377 11.7197 1.02423 13.7254C0.936668 15.9344 1.11725 24.3041 1.08228 26.2104C1.0624 27.3004 1.19358 29.2776 1.0563 30.4309L1.08228 30.9359C5.37444 30.9359 10.9705 31.0239 15.3512 30.9937C15.3326 29.2888 15.4167 26.4012 15.3422 24.1529C15.3269 23.6911 15.3111 18.8272 15.2569 18.5712C15.2569 18.5712 13.1821 18.5855 12.2359 18.5909C12.2359 18.5909 12.1724 16.7958 12.1724 16.1891C12.1724 15.5927 12.1724 14.9968 12.1724 14.4004C12.1724 14.4004 14.5856 14.2708 15.264 14.212C15.264 14.212 15.3586 11.9354 15.4529 11.1976C15.5607 10.355 15.5841 9.50376 16.0841 8.7577C16.9995 7.39357 17.9091 6.1911 19.5924 5.82807C20.2287 5.69086 24.4301 4.87333 24.5863 5.54539L24.492 9.59428C23.3502 9.59428 21.9832 9.47899 20.8183 10.3365C20.1694 10.8145 19.9914 11.2128 19.9253 11.998C19.8868 12.4553 19.8775 14.3057 19.8775 14.3057C20.4927 14.393 21.4033 14.3546 22.0643 14.3057C22.8117 14.2508 24.7291 14.447 24.7291 14.447C24.7291 15.6714 24.6797 18.4997 24.6841 18.6201C23.9205 18.6077 23.2225 18.63 22.335 18.5919C22.191 18.5852 19.8798 18.6195 19.8865 18.6608C20.0543 19.679 19.8131 20.7602 19.8275 21.7895C19.8358 22.3895 20.0142 28.9508 19.9324 30.9518C20.9543 30.9432 21.9793 30.9359 23.0221 30.9359C24.2521 30.9359 29.7286 30.9365 30.9538 30.9359C30.9538 30.9359 30.7495 7.82361 30.9407 5.38627Z" fill="#5A3F98"/>
</svg>
