<svg width="24" height="24" viewBox="0 0 24 24" fill="none" xmlns="http://www.w3.org/2000/svg">
<path d="M14.4447 12C14.4447 13.3503 13.3503 14.4447 12 14.4447C10.6497 14.4447 9.55525 13.3512 9.55525 12C9.55525 10.6497 10.6497 9.55525 12 9.55525C13.3503 9.55525 14.4447 10.6497 14.4447 12ZM17.9703 9.03733C18.0051 9.81008 18.0124 10.042 18.0124 12C18.0124 13.958 18.0051 14.1899 17.9703 14.9636C17.8786 16.9344 16.9537 17.8795 14.9645 17.9693C14.1908 18.0042 13.9589 18.0124 12 18.0124C10.042 18.0124 9.80917 18.0051 9.03733 17.9703C7.0445 17.8795 6.12142 16.9326 6.03158 14.9645C5.99583 14.1899 5.98758 13.958 5.98758 12C5.98758 10.042 5.99583 9.81008 6.03067 9.03733C6.12142 7.06467 7.04725 6.12142 9.03642 6.03158C9.81008 5.99583 10.042 5.9885 12 5.9885C13.958 5.9885 14.1908 5.99583 14.9636 6.03067C16.9509 6.12142 17.8786 7.06467 17.9703 9.03733ZM15.7657 12C15.7657 9.92008 14.079 8.23433 12 8.23433C9.92008 8.23433 8.23433 9.92008 8.23433 12C8.23433 14.0799 9.921 15.7657 12 15.7657C14.0799 15.7657 15.7657 14.0799 15.7657 12ZM16.7942 8.08583C16.7942 7.6 16.4 7.20583 15.9142 7.20583C15.4283 7.20583 15.0342 7.6 15.0342 8.08583C15.0342 8.57167 15.4283 8.96583 15.9142 8.96583C16.4009 8.96583 16.7942 8.57167 16.7942 8.08583ZM23 1V23H1V1H23ZM19.3333 12C19.3333 10.009 19.3251 9.75875 19.2893 8.97683C19.1693 6.31667 17.6898 4.8335 15.0241 4.71158C14.2413 4.67492 13.9919 4.66667 12 4.66667C10.0081 4.66667 9.75967 4.67492 8.97683 4.71067C6.313 4.83258 4.8335 6.31025 4.71067 8.97592C4.67492 9.75875 4.66667 10.009 4.66667 12C4.66667 13.9919 4.67492 14.2413 4.71067 15.0232C4.8335 17.687 6.31117 19.1674 8.97683 19.2893C9.75967 19.3251 10.0081 19.3333 12 19.3333C13.9919 19.3333 14.2413 19.3251 15.0241 19.2893C17.6842 19.1674 19.1693 17.6898 19.2893 15.0232C19.3251 14.2413 19.3333 13.9919 19.3333 12Z" fill="#333235"/>
</svg>
