<svg width="12" height="16" viewBox="0 0 12 16" fill="none" xmlns="http://www.w3.org/2000/svg">
<path d="M1.67539 16V13.6022H0V11.4286H1.67539V9.68067H0V6.90196H1.67539V0H6.45026C8.37696 0 9.78011 0.418301 10.6597 1.2549C11.5532 2.0915 12 3.24183 12 4.70588C12 5.57236 11.8185 6.38655 11.4555 7.14846C11.0925 7.91036 10.4852 8.52287 9.63351 8.98599C8.79581 9.44911 7.65096 9.68067 6.19895 9.68067H4.8377V11.4286H8.06283V13.6022H4.8377V16H1.67539ZM4.8377 6.90196H5.88482C6.77836 6.90196 7.48342 6.73763 8 6.40896C8.53054 6.0803 8.79581 5.54995 8.79581 4.81793C8.79581 3.45845 7.95812 2.77871 6.28272 2.77871H4.8377V6.90196Z" fill="#9397CB"/>
</svg>
