<svg width="32" height="32" viewBox="0 0 32 32" fill="none" xmlns="http://www.w3.org/2000/svg">
<path d="M24 21.44C22.9867 21.44 22.08 21.84 21.3867 22.4667L11.88 16.9333C11.9467 16.6267 12 16.32 12 16C12 15.68 11.9467 15.3733 11.88 15.0667L21.28 9.58666C22 10.2533 22.9467 10.6667 24 10.6667C25.0609 10.6667 26.0783 10.2452 26.8284 9.49508C27.5786 8.74494 28 7.72752 28 6.66666C28 5.60579 27.5786 4.58838 26.8284 3.83823C26.0783 3.08808 25.0609 2.66666 24 2.66666C22.9391 2.66666 21.9217 3.08808 21.1716 3.83823C20.4214 4.58838 20 5.60579 20 6.66666C20 6.98666 20.0533 7.29332 20.12 7.59999L10.72 13.08C10 12.4133 9.05333 12 8 12C6.93913 12 5.92172 12.4214 5.17157 13.1716C4.42143 13.9217 4 14.9391 4 16C4 17.0609 4.42143 18.0783 5.17157 18.8284C5.92172 19.5786 6.93913 20 8 20C9.05333 20 10 19.5867 10.72 18.92L20.2133 24.4533C20.1467 24.7333 20.1067 25.0267 20.1067 25.3333C20.1067 27.48 21.8533 29.2133 24 29.2133C26.1467 29.2133 27.8933 27.48 27.8933 25.3333C27.8933 24.3007 27.4831 23.3105 26.753 22.5803C26.0229 21.8502 25.0326 21.44 24 21.44Z" fill="#5A3F98"/>
</svg>
