<svg width="30" height="30" viewBox="0 0 30 30" fill="none" xmlns="http://www.w3.org/2000/svg">
<path d="M0 0V30H30V0H0ZM23.5775 11.5463C23.8375 17.3175 19.5337 23.7525 11.915 23.7525C9.5975 23.7525 7.44125 23.0738 5.625 21.9088C7.8025 22.165 9.975 21.5612 11.7 20.21C9.90375 20.1762 8.38875 18.99 7.8675 17.36C8.51125 17.4825 9.14375 17.4462 9.72 17.29C7.74625 16.8937 6.385 15.1162 6.42875 13.215C6.98125 13.5225 7.615 13.7075 8.28625 13.7288C6.46 12.5075 5.9425 10.095 7.01625 8.25C9.04 10.7325 12.0637 12.3663 15.4737 12.5375C14.875 9.97125 16.8225 7.5 19.4712 7.5C20.6512 7.5 21.7175 7.9975 22.4662 8.79625C23.4012 8.6125 24.28 8.27125 25.0725 7.80125C24.7663 8.76 24.115 9.56375 23.2687 10.0712C24.0987 9.97125 24.89 9.75125 25.625 9.425C25.075 10.245 24.3787 10.9675 23.5775 11.5463Z" fill="#5A3F98"/>
</svg>
