<svg width="24" height="24" viewBox="0 0 24 24" fill="none" xmlns="http://www.w3.org/2000/svg">
<path d="M22.9411 10.2066C22.9383 8.81849 23.039 7.40368 22.9831 6.00841C22.9558 5.31768 22.9411 1.00095 22.9411 1.00095C22.2482 1.00095 20.4647 0.989756 19.7835 1.04408C17.9961 1.18632 1.04754 1.03479 1.04754 1.03479C1.04684 1.94472 1.04754 6.01317 1.04754 6.92692C1.04754 8.8335 1.01912 10.6653 1.00515 12.5578C0.981393 15.8332 1.04754 20.0141 1.04754 23.2245L1.41764 23.2438C2.26333 23.1418 3.71331 23.2393 4.51266 23.2245C5.91059 23.1985 12.0483 23.3329 13.6684 23.2676C15.1388 23.2085 22.2536 23.2895 22.8566 23.2717C22.8566 23.2717 22.9586 13.7892 22.9414 13.1594C22.9139 12.1628 22.943 11.1923 22.9411 10.2066ZM18.9471 16.5387C18.4221 16.8749 16.2882 16.975 15.7713 16.5909C15.4881 16.3803 15.2294 16.1167 14.9829 15.8661C14.8108 15.6907 14.6154 15.6057 14.4677 15.4153C14.3466 15.2595 14.2642 15.0758 14.1368 14.9223C13.9223 14.6643 13.592 14.4449 13.3304 14.7601C12.9373 15.234 13.3926 16.1656 12.8676 16.5197C12.6918 16.6385 12.5141 16.6729 12.2942 16.6559L11.8072 16.6788C11.5212 16.6845 11.0677 16.6872 10.7423 16.6269C10.3795 16.5599 10.0795 16.3572 9.75129 16.208C9.12802 15.9252 8.5341 15.5402 8.08272 15.0064C6.85318 13.553 5.20137 11.554 4.5597 9.72652C4.42811 9.35101 4.07944 8.6081 4.40971 8.2855C4.85899 7.95169 7.06466 7.85734 7.4089 8.37389C7.54865 8.58356 7.63692 8.89116 7.73545 9.12895C7.85842 9.42559 7.92504 9.70507 8.11765 9.96788C8.28814 10.2007 8.41368 10.4349 8.54574 10.6903C8.69341 10.9767 8.83316 11.2516 9.01296 11.5156C9.13501 11.6951 9.45782 12.0517 9.66162 12.0784C10.1596 12.1435 10.1286 10.9057 10.0918 10.6036C10.0564 10.3124 10.0473 10.0034 10.0566 9.70817C10.0646 9.45632 10.0869 9.10131 9.94111 8.89545C9.70331 8.55998 9.17367 8.8111 9.13221 8.36031C9.22002 8.23212 9.20115 8.11871 9.78553 7.9219C10.2455 7.76703 10.5427 7.77204 10.8462 7.79682C11.4646 7.84757 12.1207 7.67625 12.7172 7.8814C13.2876 8.07797 13.1993 8.90689 13.1804 9.40391C13.1548 10.0825 13.1821 10.7441 13.1804 11.4327C13.1797 11.7463 13.1672 12.0513 13.541 12.0258C13.8913 12.0017 13.9269 11.7005 14.0941 11.4515C14.3268 11.1046 14.5402 10.7532 14.7768 10.4075C15.0961 9.94048 15.1926 9.41558 15.4925 8.93715C15.6002 8.76583 15.6924 8.39176 15.858 8.25667C15.9831 8.15421 16.2216 8.19805 16.373 8.19805H16.7335C17.0095 8.20139 17.2909 8.20544 17.5743 8.21568C17.9828 8.23022 18.4403 8.13944 18.8453 8.19781C20.5926 8.45014 16.6487 12.2738 16.8541 12.9559C16.996 13.4272 17.8955 13.9547 18.2202 14.341C18.6525 14.8544 19.9791 15.8778 18.9471 16.5387Z" fill="#333235"/>
</svg>
