<svg width="32" height="32" viewBox="0 0 32 32" fill="none" xmlns="http://www.w3.org/2000/svg">
<path d="M30.9197 13.3935C30.9159 11.5249 31.0531 9.62034 30.9769 7.74209C30.9397 6.81226 30.9197 1.00128 30.9197 1.00128C29.9749 1.00128 27.5428 0.98621 26.6138 1.05934C24.1765 1.25082 1.06483 1.04683 1.06483 1.04683C1.06387 2.27173 1.06483 7.7485 1.06483 8.97854C1.06483 11.5451 1.02608 14.0109 1.00702 16.5586C0.974627 20.9678 1.06483 26.5959 1.06483 30.9176L1.5695 30.9436C2.72273 30.8063 4.69996 30.9375 5.78999 30.9176C7.69626 30.8826 16.0658 31.0635 18.2751 30.9756C20.2801 30.8961 29.9822 31.0052 30.8044 30.9811C30.8044 30.9811 30.9436 18.2162 30.9201 17.3684C30.8826 16.0268 30.9223 14.7204 30.9197 13.3935ZM25.4733 21.9175C24.7574 22.3701 21.8475 22.5048 21.1427 21.9877C20.7565 21.7042 20.4037 21.3495 20.0676 21.0121C19.8329 20.776 19.5665 20.6615 19.3651 20.4052C19.1999 20.1954 19.0875 19.9482 18.9138 19.7416C18.6213 19.3942 18.1709 19.0988 17.8142 19.5232C17.2781 20.1611 17.899 21.4152 17.1831 21.8918C16.9434 22.0519 16.701 22.0981 16.4012 22.0753L15.7371 22.1061C15.3471 22.1138 14.7287 22.1173 14.285 22.0362C13.7902 21.946 13.3811 21.6731 12.9336 21.4723C12.0837 21.0916 11.2738 20.5733 10.6582 19.8548C8.98161 17.8983 6.72915 15.2073 5.85414 12.7472C5.6747 12.2417 5.19924 11.2417 5.6496 10.8074C6.26227 10.358 9.26999 10.231 9.73942 10.9264C9.92998 11.2086 10.0504 11.6227 10.1847 11.9428C10.3524 12.3421 10.4432 12.7184 10.7059 13.0721C10.9384 13.3855 11.1096 13.7008 11.2896 14.0446C11.491 14.4302 11.6816 14.8003 11.9268 15.1557C12.0932 15.3972 12.5334 15.8773 12.8113 15.9133C13.4903 16.0008 13.4481 14.3346 13.3979 13.9279C13.3496 13.5359 13.3373 13.1199 13.35 12.7225C13.3608 12.3835 13.3912 11.9056 13.1924 11.6285C12.8682 11.1769 12.1459 11.5149 12.0894 10.9081C12.2091 10.7355 12.1834 10.5829 12.9803 10.3179C13.6075 10.1095 14.0128 10.1162 14.4266 10.1496C15.2699 10.2179 16.1646 9.98726 16.978 10.2634C17.7558 10.528 17.6354 11.6439 17.6097 12.3129C17.5748 13.2264 17.6119 14.1171 17.6097 15.044C17.6087 15.4661 17.5916 15.8767 18.1013 15.8424C18.579 15.81 18.6276 15.4046 18.8557 15.0694C19.1729 14.6024 19.4639 14.1293 19.7866 13.6639C20.222 13.0353 20.3535 12.3287 20.7626 11.6846C20.9093 11.454 21.0351 10.9504 21.2609 10.7686C21.4314 10.6307 21.7567 10.6897 21.9631 10.6897H22.4548C22.8311 10.6942 23.2148 10.6996 23.6013 10.7134C24.1584 10.733 24.7822 10.6108 25.3345 10.6894C27.7172 11.029 22.3392 16.1763 22.6193 17.0945C22.8127 17.729 24.0393 18.4391 24.482 18.959C25.0715 19.6502 26.8806 21.0278 25.4733 21.9175Z" fill="#5A3F98"/>
</svg>
