<svg width="120" height="120" fill="none" xmlns="http://www.w3.org/2000/svg"><path d="M82.454 5.713c-1.807-2.044-6.283-1.54-6.54-1.514a.518.518 0 00-.379.265c-.294.227-.105 9.54.076 9.99.197.712 2.208 1.026 3.592.87 1.648-.283 3.989-1.172 4.556-3.178 1.024-3.527-.254-5.237-1.305-6.433zm-2.608 4.995h-.492l.019-1.676c.413.083.788.3 1.066.616a.756.756 0 01-.593 1.06zM72.813 5.07c-1.172-1.136-2.7-1.11-4.25-1.136-.657 0-1.383-.102-1.799.276-.163.163-.461 9.84-.302 10.028 0 0 0 .186.415.492.416.307 2.466.984 4.829-.321 1.55-.799 2.2-2.27 2.623-3.887.416-1.979.16-3.795-1.516-5.453zm-2.646 5.486h-.265l.03-1.49a.756.756 0 01.235 1.49zM57.5 11.54c-.101-.882-1.818-1.93-2.2-2.157.091 0 .299-.114.707-.856.632-1.135.133-2.702-.472-3.723a4.693 4.693 0 00-1.702-1.514c-.62-.22-4.461-.34-6.05 1.097.228 3.709.863 7.137 1.203 10.808.057.265 1.445.802 2.541 1.075 1.815.34 2.926.23 4.99-1.211.908-.908 1.203-1.798.984-3.52zm-5.48-4.436c-.114.152-.265.265-.416.114-.152-.151 0-.378.113-.53.265.008.492.197.303.416zm1.058 5.904c-.189.076-.34-.151-.378-.265l.114-.34a.324.324 0 01.415.226c.076.152-.075.273-.15.386v-.007zm-37.469-3.7c.35-.383.632-.821.836-1.298a3.465 3.465 0 00-.379-2.108c-.793-1.59-2.495-1.57-4.158-1.703-1.135.076-2.269.447-2.908 1.135.265 3.104.677 6.316 1.017 9.382.053.206.163.394.318.54.223.16 3.973 1.386 5.67.175 1.366-.833 1.54-1.953 1.57-3.516-.151-1.093-1.134-1.926-1.966-2.607zm-3.123-1.135l-.053-.625c.151-.038.314.178.352.292-.023.204-.223.276-.299.314v.019zm.926 4.435l.042-.973c.302.076.43.34.454.795.022.095-.322.378-.496.159v.019zm84.998-8.53c.166.325.567 1.324.302 2.006-.264.329-2.306.832-3.516 1.097-.25.114-.265 1.026-.113 1.211.15.185 1.81-.435 2.306.53.132.325.378 1.627-.076 2.27-.42.541-1.55.129-1.988.443-.114.083-.19.379-.095.443.68.303 1.403-.204 2.045-.167.416-.113.681.19.832.53.06.704.507 3.027-.93 3.504-4.484.523-6.216-.813-6.378-.96a.756.756 0 01-.216-.349c.152-3.52.28-9.813.303-10.142a.44.44 0 01.378-.378c2.042-.416 5.127-1.54 6.352-.946.33.237.602.548.794.908zm11.078 1.712c.495 1.2-.465 2.535-1.021 3.027.567 1.097.854 2.403.401 3.614-.605 1.892-2.738 3.38-4.59 3.569-1.74.075-4.681.159-4.885-1.62-.038-1.022.359-2.702.718-2.838 1.588 0 3.138.794 4.651.265.34-.19.189-.606.151-.87-.556-1.893-4.844-1.023-4.386-4.315.344-2.055 2.533-3.254 4.499-3.52 1.312-.109 3.516.977 4.462 2.688zM89.45 4.918c.228 3.035.266 6.08.113 9.12-.118 1.003-2.685 1.325-4.084 1.022a.711.711 0 01-.416-.606c.379-3.557.14-8.976.605-10.255.133-.31 1.342-.48 2.114-.5a1.776 1.776 0 011.667 1.22zm-28.524.042c.114 1.703-.325 3.288.507 4.764 0 0 .197 0 .302-.378.106-.379.53-3.52 1.248-5.071.567-.644 1.637-.212 2.004.038 1.679 1.358.828 3.807.378 5.487-.73 2.49-1.656 5.161-4.537 5.676-1.078.114-1.853-.681-2.269-1.514-.948-1.487-.87-8.957-.65-9.207.643-.53 1.928-1.135 2.428-.859.499.277.59 1.064.59 1.064zM42.49 4.01c.53.075.643.643.757 1.06l.605 2.61c0 .424-.378.549-.68.549a69.26 69.26 0 01-3.403.378c.183 1.684.233 3.38.15 5.071-.264.644-.982.606-1.55.492-.755-.227-1.663-.416-2.041-1.286-.265-1.363.087-4.163 0-4.277-.567-.53-1.683.122-2.174-.673-.492-.795-.17-2.27-.662-3.224-.075-.303.038-.681.34-.72 2.874-.29 6.213.088 8.659.02zm-20.045.196c.605.909.915 2.123 1.134 2.907a.527.527 0 01-.416.605c-.794.114-1.663.076-2.382.416.114.341 0 .523.076.87.53-.037 1.058-.226 1.588-.075.68.643.514 2.305.378 2.748-.492.53-1.293.242-1.89.582 0 .17-.027.333.075.379.31.174 1.04-.08 1.323.291.756.568.756 1.514.719 2.309a1.173 1.173 0 01-1.172.908c-1.097-.038-3.146-.379-3.328-.53a1.18 1.18 0 01-.226-.606c-.152-3.367-.787-9.46-.707-9.922.642-.757 3.024-1.177 3.429-1.203.499.049 1.059-.057 1.399.321z" fill="#231F20"/><path d="M97.177 4.207c.265.234.548 1.014.095 1.24-.2.118-2.624.629-2.972.739-.348.11-.881 3.13-.17 3.477.578.22 1.686-.2 2.151 0 .185.087.159.379.064.583-.094.205-1.255-.072-1.746.345-.409.329-.817 1.918-.424 2.41.719.72 2.518.099 2.76.227.242.129.295 1.136-.038 1.4-.332.265-3.962-.17-4.56-.435a.78.78 0 01-.28-.284c.039-2.99-.23-8.594-.082-8.825 1.626-.552 4.934-1.116 5.202-.877zm11.176 2.413c.106.258-.018.724-.302.777-1.096-.265-2.216-2.218-2.938-1.446a.724.724 0 00-.162.783c1.247 1.552 3.289 2.839 2.911 4.996a3.954 3.954 0 01-3.252 2.8c-1.285.114-2.835.114-3.97-.492-.162-.178-.052-1.026.152-1.097 1.512.227 3.478.719 4.839-.417a1.704 1.704 0 00.492-1.665c-.696-2.47-4.295-2.99-4.386-3.368-.34-.757.302-1.551.794-2.195.711-.756 1.966-1.286 3.1-.832 1.097.265 2.004 1.249 2.722 2.157z" fill="#9397CB"/><path d="M33.148 6.42c-.075.87-.053 2.135-.552 2.566a1.44 1.44 0 01-.896-.05c-.151.341.443.932.488 1.416.151 1.779.094 3.572-1.57 4.594-1.738.833-4.31 1.173-6.048.076-.87-.833-.522-3.206-.379-3.368.409-.435 1.46-.091 2.382-.038.68.027 1.702.265 2.004-.568.114-1.74-1.607-.677-2.646-2.649-.605-1.021-.125-2.796.45-3.349 1.168-1.43 4.007-.53 5.633.152.382.283 1.059.726 1.134 1.218z" fill="#231F20"/><path d="M88.425 5.338v6.588c.034.723.408 1.779-.643 1.95-.492.075-1.274.253-1.41.048.037-2.876-.34-6.168.302-8.93.507-.227 1.486-.337 1.75.344zm-66.669-.204c.038.227.432 1.26.379 1.563-.065.212-1.97.068-2.216.4-.102.19-.473 1.935 0 2.956.299.428 1.218.087 1.747.05.093.228.13.476.106.722-.643.303-1.664.349-1.777.598-.034.757-.276 2.021.113 2.27.605.152 1.482 0 1.822.636-.037.19.114.492-.113.606a6.203 6.203 0 01-2.57-.416c-.19-2.952-.303-5.941-.606-8.855.976-.367 2.688-.863 3.116-.53zm20.281.049l.507 1.922c-.03.19-2.269.326-3.456.174-.299.08-.567.182-.567.447.233 1.692.335 3.4.302 5.109-.068.295-1.198-.193-1.36-.379-.303-1.513.15-3.296-.152-4.847-.643-.644-1.837-.235-2.34-.757l-.231-1.87c2.495.05 4.802.163 7.297.201zm17.77-.076c-.113 2.27-.34 4.844 1.55 6.244.685.545 1.267-1.218 1.513-2.346.306-1.434.302-2.611.87-3.784.49-.265.869.34 1.096.68.302 1.212-.091 2.298-.454 3.52-.454 1.817-1.248 4.05-3.327 4.655a1.08 1.08 0 01-1.134-.417c-.99-1.135-1.051-4.957-1.059-8.287.302-.19.643-.454.945-.265zM31.904 6.62c-.05.342-.151.674-.302.985-.87-.076-1.853-1.552-2.684-.492-.2.518 1.024 1.4 1.474 2.233.718 1.135.907 2.913.303 4.124-1.082 1.556-5.105 1.257-5.407.568a1.973 1.973 0 01-.076-1.287c1.46.118 3.44.568 4.31-.946a3.337 3.337 0 00-.15-2.27c-.643-1.098-2.194-.681-2.572-2.006-.113-.53-.094-1.264.265-1.627 1.134-.833 2.76-.227 3.932.19.333.116.641.296.907.529zm50.392.746c-1.316-2.115-3.584-2.107-5.702-1.892-.264 2.725.227 5.223.038 8.06.057.739 4.374.818 5.596-.832a4.702 4.702 0 00.068-5.336zm-.787 3.266c-.332.537-.82.96-1.398 1.211-.61.163-1.513.34-1.815-.303-.076-1.286-.053-3.86.037-4.01.794-.53 1.857.256 2.307.605.332.288.624.619.87.983a1.515 1.515 0 010 1.514zM72.586 6.62c-.945-1.664-2.986-1.74-4.726-1.437.038 2.8-.642 5.563-.302 8.363.605.416 1.701.227 2.495.19 1.55-.304 2.685-1.628 3.138-3.104.34-1.325.227-2.914-.605-4.011zm-1.02 4.315c-.379.552-1.513 1.135-2.458.719-.794-.48-.454-2.536-.416-3.671a1.134 1.134 0 01.87-.378 2.758 2.758 0 012.306 1.589 2.503 2.503 0 01-.302 1.74zm-56.411-.492c-.416-.227-.805-.239-1.134-.655-.125-.79 1.059-1.09 1.323-1.809a1.515 1.515 0 00-.113-1.282c-1.021-1.666-3.592-1.703-5.142-.909.038 2.8.563 5.45.903 8.136 1.362.379 2.84.795 4.352.417.832-.303 1.135-1.25 1.172-2.082-.075-.757-.73-1.37-1.36-1.816zm-3.705-1.74c-.076-.644-.34-1.401 0-2.006.492-.417 1.399-.568 1.853.037.264.492.567 1.06.34 1.665a1.483 1.483 0 01-1.21.72c-.378.037-.87 0-.983-.417zm3.403 4.01c-.076.568-.579.803-1.134 1.022-.43.095-.88.055-1.286-.113l-.05-2.827c.455-.568 1.513-.568 2.073.155a1.776 1.776 0 01.397 1.764zm41.551-.793c-.189-.496-1.058-1.022-1.663-1.363-.567-.227-1.4.076-1.853-.454-.352-1.056 1.323-1.249 1.928-1.968.454-.606.416-1.703.076-2.346-.34-.568-1.097-1.408-1.618-1.514-1.35-.155-3.959 0-4.394.711.265 2.233.378 4.504.832 6.66.114.909.155 2.097.378 2.725a6.49 6.49 0 001.993.682c.971.113 3.27-.069 4.045-1.211.332-.583.43-1.27.276-1.923zm-5.898-4.315c-.038-.681-.038-1.627.68-1.93a1.382 1.382 0 011.891.72 1.411 1.411 0 01-.075 1.286 1.992 1.992 0 01-1.173.757c-.605.151-1.058-.379-1.323-.833zm3.705 5.639a2.33 2.33 0 01-1.02.984 1.432 1.432 0 01-1.172-.379 2.178 2.178 0 01-.34-1.816 1.332 1.332 0 011.21-.833 1.288 1.288 0 011.209.644c.113.416.416.938.113 1.4z" fill="#9397CB"/><path d="M107.722 16.721a1.487 1.487 0 01.935-1.348 1.48 1.48 0 012.002 1.098 1.482 1.482 0 01-1.451 1.764 1.474 1.474 0 01-1.486-1.514zm1.486 1.828a1.823 1.823 0 10-.06-3.645 1.823 1.823 0 00.06 3.645zm-.378-1.684h.378l.552.912h.359l-.601-.927a.547.547 0 00.548-.579c0-.416-.249-.598-.756-.598h-.802v2.104h.318l.004-.912zm0-.272v-.651h.435c.223 0 .461.049.461.31 0 .322-.242.34-.514.34h-.382zM61.962 19.79c9.641-.719 19.396-.227 29.113.076 5.671-.265 11.758-.568 17.467-.19.114.53.794.493.908 1.022-.492 9.688.189 19.376-.378 29.328-.227 6.623.075 13.207-.719 19.716-.302 5.374-.151 11.126-.605 16.5a398.418 398.418 0 01-.378 15.061.976.976 0 01-.529.832l-15.048-.227-10.662.114-17.657.416c-9.527-.303-18.223.568-27.562.492-8.28.643-17.014-.303-25.18.605a1.208 1.208 0 01-.908-.794 2.387 2.387 0 01.378-1.628c.643-13.698-1.437-26.981-.794-40.491-.189-4.428-.189-9.688 0-14.683-.189-7.606.076-15.477.227-22.932-.038-1.022-.53-2.422.454-3.103.756-.682 1.512.302 2.42-.114 5.709-.076 11.342-.53 17.013-.53 10.662.333 21.703.53 32.44.53z" fill="#231F20"/><path d="M76.897 22.477a58.173 58.173 0 018.128.19c7.26.453 14.33-.682 21.627-.19.227 2.65-.151 5.147-.113 7.871l-.076 17.56c-.113 5.108-.227 10.065-.34 15.098-.946.303-1.891-.037-2.76-.227-.152.19-.492.379-.303.644l.492.416c-.152.227-.416.492-.227.795.265.492.869.53 1.021 1.06a.544.544 0 00-.832.415c.529.644-.832.72-.303 1.4l.757.864c-.378-.152-1.021-.22-1.21.196 0 .568.695 1.003 1.073 1.268-.378 0-.884-.095-1.187.132-.038.19-.189.417-.038.606.416.53.984.643 1.513.908-.794.303-1.777-.34-2.269.568a1.386 1.386 0 00.454 1.438 2.24 2.24 0 002.42.681 1.206 1.206 0 00.491-1.4c-1.172-.53.643-.87.038-1.59-.907-.454.639-.855-.612-1.831.266-.118.511-.28.726-.477.264-.643-.908-1.022-.152-1.552-.68-.794.681-1.135.227-1.967.454-.114.378-.606.378-.908-.075-.076-.189-.152-.151-.303.076-.076.227-.038.302-.038l.152.113c-.519 4.206-.772 8.44-.756 12.678-.038 3.065-.379 6.017-.416 9.044-3.668.34-6.768-.076-10.549.076-2.76-.227-5.785.113-8.431.189.718-1.098 1.852-2.536 2.382-3.974 1.89.19 4.007-.075 5.217-1.627 1.059-1.476 1.4-3.444 1.135-5.336 2.457-4.39 4.839-8.78 7.032-13.244.189-1.06-.718-1.628-1.286-2.309-.87-1.249-2.003-2.46-2.835-3.746 2.23-1.93 4.31-4.276 3.516-7.417-.492-3.066-2.23-6.207-5.218-7.682-2.42-.682-4.764-1.552-7.259-2.006-1.02-3.33-4.348-6.736-7.902-7.114-4.008-.87-7.6.416-10.397 3.027a4.908 4.908 0 01-1.104-.28c-.923-.182-3.384-.802-5.388-.689a90.25 90.25 0 00-10.269 7.516c-.59.524-1.236.981-1.928 1.362-.605-3.973-3.138-8.25-7.184-9.65a12.259 12.259 0 00-11.796 2.536c-2.495 2.346-4.397 5.642-5.104 7.947a14.75 14.75 0 00-.227 4.983c-3.894 2.309-7.637 4.882-11.532 7.153-.453.454-.956 1.014-.87 1.589a336.15 336.15 0 004.916 26.944c-1.059 1.135-1.928 2.346-2.23 3.822a26.69 26.69 0 01-4.651.303c-.265-.606-.038-1.438-.19-2.082-.264-5.827-.49-11.958-.755-17.975l.075-21.23c-.34-5.373.151-10.936.076-16.385 0-2.65-.076-5.298.038-7.985 4.007-.227 8.317-.34 12.741-.378 4.537-.19 9.301.075 13.876.227l12.023.075c3.246.265 6.508.265 9.755 0 4.045-.416 8.28-.189 12.476-.416 1.286.276 2.545-.064 3.793.314z" fill="#9DD6C5"/><path d="M89.615 50.295c0 1.067-.102 3.315 1.37 4.666a6.48 6.48 0 003.546 1.646l3.988 5.245s.284.106.208.673c-1.46 2.483-1.667 3.474-3.402 6.615-.859 1.32-2.553 4.572-3.479 5.733-.185.485-.068.534.208.905-.09 3.712-1.414 3.595-3.108 3.69-1.089-.095-1.762-.054-2.896-1-1.369-.881-.639-2.785-.185-3.621.454-.837.786-1.393 1.229-2.157 0 0 1.228-1.696 1.739-2.483 1.172-1.778 3.293-5.638 3.293-5.638.646-1.207.06-1.779.023-1.741-.19-.454-2.715-3.11-2.715-3.11-1.096-1.325-2.945-4.318-3.894-4.27-.976.186-1.717 1.367-1.717 1.367-.438.79.325 3.667.65 5.082.514 1.863.81 3.78.881 5.71.015 1.013.085 2.023.208 3.028-.438 1.022-1.455 2.38-1.947 3.553-.491 1.098-.873 2.063-.835 3.387-.076 0 .162 2.085 1.183 2.994.53.53 1.165.783 1.807 1.161-.189 1.173-1.512 2.449-2.2 3.433a14.19 14.19 0 01-2.435 2.346c-.88.787-1.853 1.275-2.042 2.6.454 3.027.711 6.092.976 9.12-.303.265-1.388.08-1.89.117-.985.128-1.98.143-2.969.045l-.42.023c-.32.09-.32-.416-.377-.696 0 0-1.021-5.446-1.135-8.284 0 0-.28-1.23-.378-1.953-.068-.378-.053-.575.212-.756a79.772 79.772 0 005.168-7.217c.488-.674.488-.954.28-1.6a2.033 2.033 0 00-.926-.444 1.511 1.511 0 00-1.577.837c-2.23 3.216-3.875 4.942-6.05 8.325-.555.534.209 3.183.303 4.458 0 0 .579 4.594.787 5.408.15.672.259 1.353.325 2.04-1.361.079-4.356.215-5.566.14-.113-2.09-.033-2.979-.185-5.174-.227-2.27-.253-5.502-.325-7.008.038-.038-.113-1.763-.113-1.763.68-.648 5.474-7.327 6.722-9.03.257-.465-.12-1.865-.159-2.32-1.02-5.26-1.573-8.832-1.762-14.319.038 0-.102-1.362-.064-1.325.076-.416-.442-.817-1.134-1.324-.125-.314-3.615.594-4.412.821l-6.11 1.514-4.16.946a16.498 16.498 0 01.175-3.311s.283-1.465 1.368-1.798c.946-.284 3.169-.567 4.348-.946.19-.151 8.413-2.41 8.602-2.41.658 0 .934.953 1.841.991a1.432 1.432 0 001.562-.897c.34-1.438-.957-1.816-1.562-3.027-1.085-1.658-1.656-2.54-1.558-4.117-.15-.19-.238-2.506 1.324-5.722 1.463-2.415 4.51-4.92 8.507-4.473 8.08.878 6.994 8.624 6.994 8.965l-.143 2.036c-.034.756-.904 2.543-.946 3.072a9.968 9.968 0 01-1.18 2.176 1.209 1.209 0 00.046 1.374c.605.454.779.852 1.607.662 1.214-.378 1.856-2.781 2.537-3.614.015-.038 1.94.413 1.94.644z" fill="#F47A3F"/><path d="M45.705 37.349c2.873 3.065 3.591 7.462 2.574 11.55-.416 1.21-1.176 2.187-1.63 3.36-.113.654.379.64 1.279 1.301.62.379.824.13 1.028 0 1.452-.84 1.788-2.88 2.42-4.34.274-1.08.451-2.181.53-3.292 4.385-2.574 8.015-6.206 12.363-8.855 1.134-.076 2.423.223 3.52.412-.893 1.586-1.592 2.993-1.82 4.696l-.112.72c-4.613 4.238-9.906 7.454-14.065 12.147l-.416.794c-.076 6.358-1.097 12.64-1.853 18.846l.076.757 6.2 8.78c-.302 5.335-1.247 10.406-2.268 15.439-1.966-.076-3.705.113-5.823.038 1.059-4.2 2.307-8.515 2.912-12.98.037-.946-.719-1.59-1.135-2.384l-4.612-6.282a2.61 2.61 0 00-2.193-.492 1.063 1.063 0 00-.643.795c-.265 1.248 1.248 1.854 1.702 2.913 1.36 1.78 2.57 3.747 3.856 5.639a131.093 131.093 0 01-3.138 12.904c-2.117.038-3.894.227-6.087 0 1.058-2.914 2.23-5.752 3.289-8.666a2.087 2.087 0 00-.378-1.513 27.893 27.893 0 01-7.864-16.765c-1.097-4.314-.643-9.347-.832-14.001-.567-.606-1.323-1.173-2.193-.984-2.306 1.854-4.802 3.103-6.843 5.222-.038.568 0 1.325.416 1.703 2.306 5.828 2.684 12.223 3.44 18.694 0 1.59-.113 3.33-.832 4.73-1.02.87-2.003 1.968-3.327 2.309-.87.151-1.94.757-2.798-.076-.756-1.59.152-3.254 1.248-4.465a4.096 4.096 0 001.096-1.211v-.757c-1.096-5.411-2.457-10.785-3.251-16.234-.68-3.406-1.732-9.95-1.512-10.218 3.402-2.006 6.767-4.2 10.17-6.32.832.757 1.21 1.855 2.08 2.687.605.568 1.096 1.4 2.041 1.098.53-.038.832-.568 1.172-.909.303-1.097-.945-1.816-1.474-2.573-1.4-2.081-2.382-4.806-1.512-7.38.756-3.594 4.234-6.924 7.561-8.21 1.248-.357 4.47-.663 5.974.15l1.664 1.223zm51.419 8.666c.68 1.779 1.89 4.428.151 6.055-.68.605-1.323 1.324-2.268 1.286-.847-.159-2.306-.416-2.23-1.778-.568-1.514.566-3.785-1.475-4.428l-2.61-.832c-.112-.568.054-1.226.198-2.127.037-.833-.046-1.468.181-2.225 2.836.984 6.114 1.135 8.053 4.049z" fill="#FFD520"/><path d="M66.272 46.999c.183.761.423 1.508.719 2.233-1.021.492-2.193.53-3.252.908l-2.57.719a48.864 48.864 0 015.103-3.86z" fill="#9DD6C5"/><path d="M105.518 56.46a.406.406 0 01.214.293.406.406 0 01-.101.35c-.302.227-.832.151-1.172.075-.189.341-.075.833-.529 1.022a1.201 1.201 0 01-1.286-.53 1.108 1.108 0 01-.302-1.173c.34-.189.378-.643.794-.643.869 0 1.501.53 2.382.605z" fill="#231F20"/><path d="M103.158 57s.197.27.299.186c.102-.083-.034-.31-.034-.31s-.064-.125-.174-.076c-.109.05-.091.2-.091.2z" fill="#9DD6C5"/><path d="M103.627 58.692a1.626 1.626 0 011.74.265c.378.416.831.87.567 1.514-.114.416-.454.34-.794.454-.794-.038-1.437-.643-2.231-.416a1.42 1.42 0 01-.794-.833c.038-.568.076-1.173.643-1.4a1.133 1.133 0 01.869.416z" fill="#231F20"/><path d="M103.321 59.508c0 .076-.125.151-.23.113a.294.294 0 01-.069-.248c.038-.117.242-.076.299.135zm1.743.357v.114c-.265-.114-.605-.038-.756-.379.038-.567.567.038.756.265zM67.293 61.19c.038 5.26.983 10.104 1.777 15.061-2.457 2.99-4.386 6.206-6.805 9.196l-.114 1.21c-1.096.228-2.268.606-3.403.38.114-1.212.379-2.688 0-3.937-1.814-3.027-4.045-5.865-6.049-8.817.794-3.368 1.134-6.925 1.437-10.482 4.234-1.325 8.696-2.082 13.044-3.103l.113.492zm21.967 3.254c-.416.643-.605 1.4-1.096 2.006-.265-1.438-.19-3.066-.53-4.466.567.75 1.966 1.438 1.626 2.46z" fill="#9DD6C5"/><path d="M29.851 67.218c-.264.34-1.376.492-1.814.378-.492-1.18-1.006-2.33-1.082-3.406a17.396 17.396 0 012.847-1.82c.227 1.28.125 3.523.05 4.848z" fill="#F47A3F"/><path d="M102.115 67.964a.613.613 0 01-.378.68c-.265.039-.378-.226-.416-.415a.44.44 0 01.302-.417.442.442 0 01.492.152z" fill="#231F20"/><path d="M30.127 70.537c.605 5.525 1.89 10.747 4.5 15.478l1.398 2.043-6.124-.038c.831-3.368.226-7.19-.19-10.71a44.297 44.297 0 00-1.02-6.773c.416-.19.907-.113 1.323-.303l.113.303zm74.219 2.793c-.567.15-1.135-.228-1.513-.606v-.19c.53.16 1.361.084 1.513.795z" fill="#9DD6C5"/><path d="M105.064 74.548a.378.378 0 01.189.416c-.454.492-1.248.34-1.815.34-.075.341-.151.871.303.947.453.151.983-.34 1.21.151.037.34-.265.454-.492.568a13.7 13.7 0 01-4.31-.681.655.655 0 01.265-.606c.794-.038 1.55.34 2.23.19 0-1.4-1.739-1.022-2.609-1.514-.113-.19-.264-.416-.113-.606.756-.454 1.437.265 2.231.303a10.43 10.43 0 002.911.492zm-1.512 3.254c0 .228.037.568-.227.606a.378.378 0 01-.416-.19c0-.226-.076-.529.227-.605a.542.542 0 01.416.19zm-.492 2.271c.454-.34.341-1.362 1.097-1.097.227.416-.114.946-.227 1.4.227.34 1.021-.038.832.643-.454.568-1.21-.113-1.702.379-.529-.568-1.474-.19-2.155-.379a.4.4 0 01-.075-.184.404.404 0 01.019-.197.408.408 0 01.283-.262c.298-.064.603-.09.907-.076-.075-.605-.869-1.135-1.398-1.513 0-.265 0-.606.302-.606a5.342 5.342 0 012.117 1.892zm1.55 2.838a1.885 1.885 0 00-1.588-.938 1.456 1.456 0 00-1.209 1.014 1.566 1.566 0 00.189 1.362c.226.416.605.908 1.134.87a1.672 1.672 0 001.588-.87 3.115 3.115 0 00-.114-1.438zm-.733.178a.312.312 0 00-.366.012.32.32 0 00-.084.098c-.057.072 0 .216-.03.302-.046.235-.114.379-.31.163-.065-.113-.031-.427-.129-.545-.098-.117-.28-.117-.469.034.329-.673 1.04-.461 1.392-.064h-.004zm-.579 1.593a.904.904 0 01-.828-.605l-.098-.303.057-.47.091.05a.917.917 0 00.707 1.048c.34-.038.589-.083.71-.424l.031-.143.037-.197h.095c.238.893-.386.915-.802 1.044z" fill="#231F20"/><path d="M103.816 90.858c-.605-1.211 1.286-.87 1.021-1.892-1.285.265-2.911.038-4.31.189-.03.305-.004.613.076.908a1.891 1.891 0 01-.983.909 1.954 1.954 0 01-1.626-.417 1.429 1.429 0 01-.114-1.4h-3.364c.037.53.037 1.097-.454 1.325a1.617 1.617 0 01-1.55-.303 1.99 1.99 0 01-.227-1.136 27.576 27.576 0 00-5.104.228l.302.302a1.258 1.258 0 01-.818 1.943c-.276.05-.56.005-.808-.126a1.87 1.87 0 01-.68-.757 1.06 1.06 0 01.567-1.287c-1.021.038-2.117-.113-3.025.114l.454.189c.605.151.67.564.68 1.135a1.574 1.574 0 01-1.512 1.287 11.047 11.047 0 00.416 3.898c.643-.152 1.512-.069 1.815.34.115.53.075 1.082-.114 1.59-.378.378-1.058.302-1.512.302.004.305.049.608.132.901a38.6 38.6 0 005.169.045c.268-.98 1.093-1.067 1.89-1.067.605.114.458.757.874.954 1.739.265 3.024-.416 4.688-.34 1.058.756 2.684.34 4.008.34a.882.882 0 010-.757c.302-1.022 1.436-.378 2.155-.568.831.076.453.984.605 1.4l1.777.076c-.492-.34-.53-.82-.681-1.313a1.03 1.03 0 011.089-.757c.191-1.849.231-3.71.121-5.566-.514.03-.768-.31-.957-.69zm-19.887 3.898a1.347 1.347 0 01-.567-1.514c.491-.719 1.437-.719 2.193-.643.24.05.454.184.605.378.227.643-.151 1.097-.303 1.627-.529.34-1.323.19-1.928.152zm4.235 2.119c-.643 0-1.362.454-1.777-.303-.303-.265-.152-.757-.038-1.06.453-.416 1.058-.416 1.626-.605.264.076.642.114.68.454-.076.454.227 1.325-.491 1.514zm1.436-3.633a1.624 1.624 0 01-1.436-.303c-.114-.378-.34-.87-.076-1.248.53-.757 1.74-.72 2.458-.341.136.325.378 1.097-.027 1.438-.37.628-.628.303-.919.454zm3.479 3.444c-.567.53-1.588.264-2.193 0-.454-.265-.378-.87-.303-1.287.454-.984 1.55-.492 2.42-.53l.303.34c.12.504.039 1.034-.227 1.477zm1.739-3.028c-.302-.265-.643-.454-.718-.87a1.075 1.075 0 01.718-1.135 1.776 1.776 0 011.399.189 1.355 1.355 0 01-.038 1.514 1.45 1.45 0 01-1.372.302h.01zm2.798 4.05c-.53.189-1.361.454-1.89 0-.303-.379-.681-.871-.341-1.4.492-.72 1.777-.644 2.495-.304.19.53.19 1.287-.264 1.703zm1.89-3.936a1.089 1.089 0 01-.605-1.211c0-.416.299-.583.64-.757.404-.023 2.317-.276 2.309.696.227.681-.34.984-.642 1.363-.568-.053-1.21.28-1.702-.099v.008zm2.533 3.406a1.442 1.442 0 01-.945-.87c.038-.53.076-1.174.719-1.4a2.324 2.324 0 011.928.567l.113 1.021a1.71 1.71 0 01-1.815.674v.008zM62.53 93.167c-.681-.038-1.362.113-1.967-.114a1.32 1.32 0 01-.642-1.4.964.964 0 01.605-.605c.567-.19 2.003.416 2.003-.492l-.15-.606c-1.362-.113-2.61.152-3.933.227-.038.076-.151.114-.113.19 0 .34.453.113.68.189.416.265.378.719.454 1.135 0 .984-1.021.946-1.664 1.173-.15 1.362-.68 2.573-.756 3.936.68-.227 1.286.113 1.815.416a2.435 2.435 0 01-.151 1.476c-.454.454-1.286.378-1.966.303l-.038.605h2.344c.416.076.302-.378.302-.605a1.682 1.682 0 011.475-.682c.113.114.189.265.34.19a.712.712 0 01.567.908 1.205 1.205 0 001.135 0c-.038-2.12-.152-4.2-.34-6.244zm-4.575 2.346c-.379-.265-.227-.833-.152-1.21.303-.569.946-.606 1.55-.644.34.227.983.189.983.794.114.492-.189.87-.378 1.25-.642.113-1.448.332-2.003-.19zm4.272 2.384c-.492.038-1.134.19-1.512-.113a1.214 1.214 0 01-.265-1.476 1.338 1.338 0 011.399-.34c.302.037.643.075.794.415.151.606-.265 1.022-.416 1.514zM38.332 91.35c-2.495-.378-5.066-.038-7.6-.303.416.303.454.757.492 1.211-.34.946-1.361.984-2.306.909a1.68 1.68 0 01-.643-.72 1.136 1.136 0 01.302-1.362h-.756c-.87.72-1.664 1.552-2.647 2.006l1.286.151a1.134 1.134 0 01.756 1.363c-.34.643-.907 1.06-1.701.794-.378-.189-.87-.265-1.021-.794a1.208 1.208 0 01.113-1.25c-.34.303-1.134.228-1.134.833-.378.644-1.02 1.136-1.815.909a1.205 1.205 0 01-1.02-.947c-1.475-.15-2.534-1.665-2.874-2.913-1.55.037-3.252.15-4.84.113v1.098l.605.037c.303.53 1.248.72.983 1.514a1.754 1.754 0 01-1.474.908v2.611c.151 0 .34.076.416-.037a1.323 1.323 0 011.701.53c.227.491-.038.946-.491 1.286-.53.454-1.966-.038-1.664 1.135 1.059.227 2.155-.113 3.252-.151v-.083c-.34-.114-.303-.492-.492-.72a.906.906 0 01.378-1.097c.756-.113 1.89-.416 2.344.53.34.454 0 .984-.415 1.287.642.189 1.21-.076 1.89 0l.605-.795c.756-.151 1.852-.53 2.42.303.113.189 0 .454.264.567 3.214-.075 6.655.152 9.68-.189-.228-.568.15-.984.566-1.362.605-.114 1.55-.303 2.042.189a46.434 46.434 0 001.626-4.352 1.748 1.748 0 01-1.021-1.627c.416-.795 1.323-.795 2.004-.757.075-.257.378-.56.189-.825zm-22.307 5.412c-.53.075-1.134.075-1.512-.265-.379-.34-.265-.909-.152-1.4a2.104 2.104 0 011.664-.227l.643.794c.189.53-.34.795-.643 1.098zm-.378-2.99a1.241 1.241 0 01-.378-1.476c.642-.568 2.382-.795 2.798.303a1.137 1.137 0 01-.492 1.173c-.654-.008-1.323.265-1.928-.008v.008zm3.78 3.52c-.642.075-1.587.226-1.7-.606-.265-.303-.076-.681.037-.984.303-.568 1.134-.378 1.664-.416.313.187.563.464.718.794.265.53-.416.909-.718 1.211zm3.97.832a1.89 1.89 0 01-1.852-.038c-.492-.303-.378-.908-.303-1.324.454-.795 2.118-.909 2.61.113.226.492-.126.908-.454 1.249zm3.517 1.4c-.378.454-1.097.227-1.55.19a1.088 1.088 0 01-.681-.833.965.965 0 01.605-1.173c.718-.114 1.626-.152 2.004.567a1.08 1.08 0 01-.378 1.25zm1.777-4.163c.453-.87 2.004-.719 2.495 0-.076.492-.113 1.211-.567 1.552a2.232 2.232 0 01-1.399-.114c-.34-.34-.794-.87-.53-1.438zm3.024 4.163c-.302.492-1.058.34-1.512.454-.302-.038-.605-.416-.718-.681a.923.923 0 010-.984c.491-.567 1.663-.719 2.23-.113a.918.918 0 010 1.324zm.303-6.963c.605-.719 2.155-1.06 2.835-.114-.075.417.303.682-.037 1.022-.19.757-1.021.53-1.475.909a1.511 1.511 0 01-1.02-.228 1.547 1.547 0 01-.303-1.589zm2.987 4.655c-.265.794-1.135.492-1.664.567-.378-.075-.416-.53-.643-.794-.302-.568.19-1.098.643-1.325a1.51 1.51 0 011.664.454c.113.34.302.795 0 1.098z" fill="#9397CB"/><path d="M19.98 47.366l-3.876-2.082a1.598 1.598 0 00-2.255 1.99c.127.327.358.602.656.784l3.716 1.953a1.599 1.599 0 002.278-2.225 1.598 1.598 0 00-.516-.424l-.003.004zm2.612-5.302l-4.915-4a1.599 1.599 0 00-2.561 1.571c.069.343.249.654.512.885l4.794 3.838a1.599 1.599 0 002.644-1.794 1.6 1.6 0 00-.474-.5zm3.702-6.653l-2.03-1.033a1.602 1.602 0 00-2.197 1.908c.113.394.373.73.726.938l1.86.912a1.599 1.599 0 002.163-2.329 1.599 1.599 0 00-.522-.403v.007zm4.911-3.216L27.45 26.57a1.603 1.603 0 00-2.575 1.892l3.667 5.438c.161.338.437.606.779.757a1.598 1.598 0 002.238-1.48 1.601 1.601 0 00-.348-.983h-.007zm5.717-3.02l-.658-1.635a1.583 1.583 0 00-.454-.636 1.603 1.603 0 00-2.556 1.771l.824 1.385c.068.363.26.69.541.928a1.377 1.377 0 002.064-.167 1.612 1.612 0 00.239-1.646zm6.54-1.116l-.147-1.995a1.427 1.427 0 00-.604-1.035 1.398 1.398 0 00-1.555-.02 1.368 1.368 0 00-.612 1.207l.166 1.813a1.412 1.412 0 002.163 1.328 1.37 1.37 0 00.59-1.298zm6.583 2.508l-.197-3.988c-.01-.24-.08-.472-.204-.678a1.512 1.512 0 00-2.057-.499 1.441 1.441 0 00-.722 1.226l.227 3.807c-.052.33.016.67.193.954a1.512 1.512 0 002.053.503 1.438 1.438 0 00.707-1.325zm7.237 3.13l.257-6.755a1.648 1.648 0 00-.193-.756 1.453 1.453 0 00-2.053-.583 1.632 1.632 0 00-.756 1.343l-.227 6.555c-.058.361.004.732.177 1.055a1.45 1.45 0 002.053.583 1.633 1.633 0 00.742-1.442zm6.34-1.903l.337-3.808a1.39 1.39 0 00-.106-.67 1.456 1.456 0 00-1.89-.756 1.381 1.381 0 00-.848 1.067l-.287 3.637c-.093.307-.072.637.057.93a1.448 1.448 0 001.89.758 1.377 1.377 0 00.847-1.158zm15.683-2.997l.68-1.893a1.4 1.4 0 00-1.531-1.85 1.377 1.377 0 00-1.04.863l-.59 1.722a1.392 1.392 0 102.481 1.158zm-7.841 2.07l1.134-3.966a1.549 1.549 0 00-.162-1.253 1.395 1.395 0 00-1.49-.605 1.512 1.512 0 00-1.051.984l-1.059 3.784a1.545 1.545 0 00-.144.995 1.397 1.397 0 001.694 1.136 1.534 1.534 0 001.078-1.075zm14.839-.905l1.812-3.708a1.55 1.55 0 00.057-1.268 1.397 1.397 0 00-1.373-.851 1.512 1.512 0 00-1.214.783l-1.697 3.557c-.206.275-.315.61-.31.954a1.39 1.39 0 001.474 1.396 1.511 1.511 0 001.251-.863zm9.664 7.308l2.877-2.563c.169-.153.298-.343.379-.556a1.682 1.682 0 00-.885-2.01 1.379 1.379 0 00-1.312.232l-2.726 2.47a1.49 1.49 0 00-.612.72 1.69 1.69 0 00.888 2.01 1.378 1.378 0 001.391-.304zm-3.535-3.437l5.479-5.714a1.54 1.54 0 00.41-1.195 1.391 1.391 0 00-1.064-1.197 1.511 1.511 0 00-1.388.401l-5.327 5.575a1.54 1.54 0 00-.575.825 1.39 1.39 0 001.013 1.76 1.51 1.51 0 001.452-.455zm7.959 6.021l3.289-2.005c.199-.119.367-.282.492-.477a1.68 1.68 0 00-.511-2.134 1.362 1.362 0 00-1.334 0l-3.123 1.94c-.303.113-.56.322-.734.595a1.685 1.685 0 00.514 2.134 1.368 1.368 0 001.407-.053zm-87.659 76.91a2.618 2.618 0 01-1.24-.31 2.446 2.446 0 01-.938-.867l-.03-.053a2.139 2.139 0 01-.227-.984l.019-.268.06-.265.756-.852h1.252c.106-.087.2-.186.283-.295a1.3 1.3 0 00.231-.378l.117-.33.076-.314.427-1.945.08-.238a4.69 4.69 0 01.189-.458c.07-.158.153-.311.245-.458a3.466 3.466 0 011.467-1.362 2.27 2.27 0 011.059-.242c.475-.01.94.133 1.327.408.703.515 1.134 1.412 1.33 2.736a6.4 6.4 0 01.088.965l.023 2.91-.061.613c.035.112.056.228.06.345v.147a5.97 5.97 0 01-.14.617 1.167 1.167 0 01-1.36.81 4.23 4.23 0 01-.636-.064h-.068a1.14 1.14 0 01-.703-.208 1.175 1.175 0 01-.352-.977 1.063 1.063 0 000-.197v-.995c0-.197 0-.412.027-.639l-.095.306a9.65 9.65 0 01-.378.954c-.847 1.563-2.034 1.888-2.888 1.888zm-.972-1.888c.096.143.226.26.378.34a1.2 1.2 0 00.582.148c.435 0 1.067-.114 1.558-1.105.124-.254.233-.516.325-.783l.269-.852.196-.7c.015-.095.043-.188.084-.276l.136-.311.117-.204a1.065 1.065 0 01.892-.507c.329 0 .779.163 1.059.939l.034.121.072.45.026.318v.204a7.807 7.807 0 01-.057.821 7.374 7.374 0 00-.045.757l.026.795c.015.075.023.151.023.227l.076.019h.348l.037-.17a.977.977 0 01-.045-.42l.06-.61v-1.052l-.022-1.763a4.71 4.71 0 00-.072-.757c-.132-.92-.4-1.544-.756-1.816a.968.968 0 00-.945-.042 2.074 2.074 0 00-.896.851 2.437 2.437 0 00-.163.296 5.512 5.512 0 00-.14.34l-.064.186-.253 1.116-.261 1.165-.125.352c-.106.275-.256.53-.443.757a2.9 2.9 0 01-.631.64l-.352.215h-1.02l-.065.072a.695.695 0 00.057.239z" fill="#231F20"/><path d="M11.102 114.657c0 .057 0 .114.03.167l.102.2.114.171.064.113.042.099a.763.763 0 00.552.401l.257.072c.053.017.11.023.166.019h.333l.264-.019a2.002 2.002 0 001.354-.712 2.49 2.49 0 00.458-.757c.138-.279.253-.568.344-.866l.238-.886.083-.249.05-.144.044-.193.076-.159c.077-.189.172-.371.284-.541a.483.483 0 01.378-.205.446.446 0 01.4.314.734.734 0 01.11.284l.068.288v.378c0 .171 0 .322-.026.462-.027.14 0 .284 0 .431 0 .148-.023.322-.03.462-.008.14 0 .276 0 .416v.821l.053.508c.124.317.4.306.756.306.226 0 .446.076.593-.166.132-.327.204-.674.212-1.026 0-.087.023-.155.026-.2a1.04 1.04 0 010-.103.29.29 0 010-.072v-2.153c0-.204 0-.405-.022-.598-.023-.193-.034-.378-.057-.598l-.095-.726a3.94 3.94 0 00-.453-1.351 1.892 1.892 0 00-.858-.844h-.443a1.665 1.665 0 00-.567.106 2.478 2.478 0 00-1.32 1.173 3.217 3.217 0 00-.325.727 8.566 8.566 0 01-.09.321c0 .087-.042.212-.072.379l-.299 1.426-.11.379-.11.31a2.298 2.298 0 01-.808 1.033l-.178.102-.083.038-.038.027h-1.134l-.042.045-.083.083-.095.11-.064.08-.049.09-.034.072a.74.74 0 00.034.155z" fill="#9397CB"/><path d="M23.787 116.741h-.68l-.893-.132-.174-.072-.616-.333-.514-.307a2.844 2.844 0 01-1.343-2.077c0-.557.689-1.105 1.033-1.276.218-.098.448-.168.684-.208a3.349 3.349 0 01-.144-.31 6.948 6.948 0 01-.499-2.672v-.798l.027-.099a1.345 1.345 0 01.93-.923c.119-.056.247-.09.378-.102l.291-.068.378-.019h.155c.377-.039.758.026 1.1.189.156.09.296.203.416.337.033-.046.068-.091.106-.133a1.77 1.77 0 011.327-.48 1.803 1.803 0 011.513.337 1.242 1.242 0 01.378 1.002.894.894 0 00.022.239l.03.416v.269c.001.906-.1 1.81-.302 2.694a17.967 17.967 0 01-.782 2.551 3.104 3.104 0 01-.485.779 3.402 3.402 0 01-1.421 1.03 2.773 2.773 0 01-.915.166zm1.157-1.953a3.641 3.641 0 01-.662.458c.25-.104.476-.26.662-.458zm-3.92-.809c.076.174.181.335.31.476.078.093.17.175.271.243l.155.09-.09-.132-.038-.072-.303-.639c0-.031-.049-.087-.083-.14h-.022c-.074.05-.14.108-.2.174zm1.848-.046l.03.046.053.056a.35.35 0 00.265.091 1.01 1.01 0 00.54-.197l.103-.068c-.368.054-.744.01-1.09-.128l.099.2zm-1.683-.113l-.049.019.05-.019zm.863-4.954v.492a5.62 5.62 0 00.378 2.134c.108.28.28.53.503.731.175.153.398.242.63.249a.695.695 0 00.594-.378l.16-.235.071-.075.2-.28a1.14 1.14 0 01.379-.311l.956-.401.072 1.287c0-.061.03-.121.042-.182.177-.781.266-1.579.264-2.38v-.477a2.56 2.56 0 01-.034-.412 1.405 1.405 0 00-.317 0 1.03 1.03 0 01-.136 0 1.497 1.497 0 00-.307.022v.103l-.056.514-.027.432c0 .148-.018.295-.053.439a2.48 2.48 0 01-.12.378l-.027.057a1.136 1.136 0 01-1.048.617.923.923 0 01-.922-.859v-.296a.967.967 0 01.072-.287l.128-.443v-.212a.757.757 0 00-.215-.352 1.408 1.408 0 00-.378 0h-.428l-.381.125z" fill="#231F20"/><path d="M21.258 115.161c.05.047.102.09.158.129.052.038.106.072.163.102l.34.189c.072.042.129.076.17.095.053.024.107.045.163.06l.31.106a.59.59 0 00.227.042l.329.019h.65c.185.003.37-.014.552-.05.703-.162 1.214-.666 1.539-1.513.094-.25.151-.379.162-.428.043-.118.096-.281.16-.488l.26-.98c.27-.975.413-1.982.424-2.994 0-.378.09-.874-.065-1.108-.155-.235-.56-.246-.994-.25-.435-.004-.67 0-.832.291a1.94 1.94 0 00-.12.545 2.871 2.871 0 000 .435v.481l-.02.212-.064.189a.586.586 0 01-.62.405c-.212 0-.322-.129-.322-.378 0-.078.013-.154.038-.227l.068-.22.06-.227a.67.67 0 00.046-.14.815.815 0 000-.106 1.376 1.376 0 00-.12-.458 1.018 1.018 0 00-1.01-.704c-.182.01-.362.032-.54.065l-.258.056-.268.08a.604.604 0 00-.379.647v.655l.027.31c.026.212.053.378.072.488l.08.379c.033.136.075.272.113.408.037.137.09.273.143.413.37.916.918 1.373 1.641 1.373.09-.001.18-.009.269-.026a.932.932 0 00.23-.072c.138-.064.266-.148.378-.25a.754.754 0 00.163-.151l.14-.174c.08-.102.12-.159.128-.174l.099-.148.181-.246a.212.212 0 01.066-.068.207.207 0 01.09-.034l.109.034a.19.19 0 01.08.106v.45a2.787 2.787 0 01-.039.413 2.955 2.955 0 01-.128.48 3.11 3.11 0 01-.484.829 2.799 2.799 0 01-.722.647 1.644 1.644 0 01-.889.254 1.263 1.263 0 01-.174 0c-.072 0-.14-.023-.196-.034l-.136-.061-.05-.026-.075-.031-.095-.049-.17-.121-.155-.132-.11-.136a.766.766 0 01-.128-.246l-.08-.262-.117-.291c-.098-.166-.174-.378-.442-.314a1.712 1.712 0 00-.582.216l-.08.09c-.087.122-.204.228-.204.379.023.39.34.821.84 1.245z" fill="#9397CB"/><path d="M31.86 116.766h-.14c-1.377 0-1.755-.511-1.83-.939v-.106l.162-1.309v-.306a.63.63 0 000-.099l.166-1.389c-.45.139-.932.125-1.372-.041l-.068-.034-.242-.148-.19-.185a1.857 1.857 0 01-.336-.519 1.59 1.59 0 01-.144-.681v-.34l.069-.92v-.799l.053-.378a1.72 1.72 0 01.052-.257c.016-.139.054-.275.114-.401a1.222 1.222 0 011.225-.606 1.286 1.286 0 011.047.379c.131.148.222.328.265.522.215-.927.82-1.211 1.217-1.241.322-.061 1.293-.178 1.766.484.253.365.364.811.31 1.252v.852l-.257 2.732-.503 3.406c-.14 1.029-.934 1.071-1.365 1.071zm-.53-1.427c.125.017.251.026.378.027h.166l.575-4.125.155-1.775v-.95a.38.38 0 00-.034-.178 1.425 1.425 0 00-.427.023h-.03a.884.884 0 00-.08.295v.065l-.268 1.226a1.378 1.378 0 01-.144.397 1.398 1.398 0 01-1.252.799h-.087a1.2 1.2 0 01-.317-.08.948.948 0 01-.23-.14l-.084-.079a1.528 1.528 0 01-.246-.379 1.312 1.312 0 01-.087-.31l-.041.855a.231.231 0 000 .098.775.775 0 00.068.122l.09.075h.088a1.12 1.12 0 00.32-.045 2.69 2.69 0 01.345-.076c.114-.01.23-.014.344-.011a1.035 1.035 0 01.877.473c.1.137.166.297.19.465l.03.261v.337l-.027.318-.148 1.135a1.514 1.514 0 01-.03.19v.196l-.094.791z" fill="#231F20"/><path d="M30.88 114.634a5.225 5.225 0 00-.034 1.011c.064.189.779.291.949.291.283 0 .484.049.608-.261.027-.064.069-.409.118-.624l.056-.398.163-1.271v-.083a.253.253 0 010-.091l.03-.227.223-1.82a.784.784 0 01.03-.201l.03-.246v-.193l.035-.276v-1.68c0-.095-.087-.583-.284-.685a1.806 1.806 0 00-.378-.076c-.355 0-.692-.034-.854.378l-.102.28-.057.235-.072.242-.045.273-.095.503a.805.805 0 01-.034.159c-.023.057-.045.121-.076.189a.835.835 0 01-.43.469.891.891 0 01-.379.068.304.304 0 01-.14-.064l-.143-.144-.076-.09c0-.031-.038-.061-.053-.091l-.045-.163v-1.563a.4.4 0 00-.264-.385.412.412 0 00-.163-.024c-.227 0-.477.038-.552.337a2.95 2.95 0 00-.05.379v1.812a.18.18 0 00-.09.167v.197a.928.928 0 00.238.658.719.719 0 00.287.197c.121.044.25.064.378.06h.246l.23-.049c.155-.048.316-.073.477-.072a.469.469 0 01.45.303.646.646 0 01.057.25l.03.28v.166l-.038.345-.15 1.052-.031.253v.223z" fill="#9397CB"/><path d="M39.38 116.633h-.53a2.61 2.61 0 01-.28 0l-.31-.046-1.312-.246a2.748 2.748 0 01-.31-.068l-.378-.068-.48-.094a4.467 4.467 0 01-.552-.08 3.13 3.13 0 01-.378-.178 2.054 2.054 0 01-.378-.276 1.469 1.469 0 01-.19-.685v-5.563a1.428 1.428 0 01.564-1.264l.03-.026c.137-.138.3-.246.48-.318l.069-.019c.079-.019.16-.03.242-.034h.086c.156-.018.313-.026.47-.023a2.6 2.6 0 011.11.205l.11.038c.571.185.598.556.628 1.021v.121a2.45 2.45 0 01-.026.481v.545s-.068.378-.155.844a.844.844 0 01.268-.326 1.81 1.81 0 011.89.095l.05.045-.057-.355-.038-.526a7.903 7.903 0 01.064-1.09c.084-.341.379-.458.67-.606l.037-.019c.27-.096.554-.146.84-.147a1.512 1.512 0 011.535 1.222v.28c.033.163.05.329.053.496.07.706.09 1.417.06 2.127a18.363 18.363 0 01-.665 2.985 1.364 1.364 0 01-.216.379.679.679 0 00-.064.087 1.833 1.833 0 01-1.115 1.003h-.057l-.337.049a3.027 3.027 0 01-.29.045h-.065l-1.074-.011zm-3.835-1.733l.424.06.941.182.25.053.344.076.964.17c.08 0 .151.023.223.03h1.724l.212-.034.276-.042c.14-.045.257-.143.412-.446a1.88 1.88 0 01.166-.242l.053-.072c.262-.867.459-1.753.59-2.649a14.36 14.36 0 00-.056-1.96v-.061c0-.099-.01-.198-.03-.295a.983.983 0 010-.337.381.381 0 00-.379-.269 3.42 3.42 0 00-.416.05l-.14.071a.487.487 0 00-.022.103l.041.223.057.7.25 1.423c.033.175.052.352.056.53v.196l-.03.258c.005.374-.071.744-.223 1.086a1.36 1.36 0 01-1.29.81.934.934 0 01-.756-.557l-.037-.064a1.214 1.214 0 01-.223-.496 1.464 1.464 0 01-1.26 1.136h-.257l-.378-.201-.264-.219-.053-.235a1.988 1.988 0 01-.288-1.241c.065-.401.435-2.407.503-2.767v-.155c0-.117 0-.238.027-.378a1.51 1.51 0 00.022-.269v-.125a.433.433 0 000-.072 1.511 1.511 0 00-.71-.132h-.496l-.08.072a1.76 1.76 0 01-.158.129c-.034.026-.072.053-.072.329v5.423l.08.094v.072l.003.042zm4.44-1.737a.191.191 0 000 .049c.031.041.06.084.086.129a.268.268 0 00.076-.099c.084-.206.124-.428.117-.651v-.068l.034-.352a2.301 2.301 0 00-.038-.325l-.026-.133c.01.159-.01.318-.057.47l-.072.272-.056.413v.034a1.186 1.186 0 01-.065.261zm-2.209-1.858a86.154 86.154 0 00-.272 1.513c.007.181.062.356.159.507a.526.526 0 00.128-.23v-.299l.042-1.018-.027-.239a.727.727 0 000-.091 1.266 1.266 0 01-.018-.143h-.012zm1.134 1.468v-.08c.008-.045.018-.091.03-.136l.042-.359.091-.341a.193.193 0 000-.106v-.053c.002-.086.012-.173.03-.257a1.076 1.076 0 00-.227 0 .08.08 0 010 .03l.034.239v1.063z" fill="#231F20"/><path d="M35.387 115.308l.517.08.47.091.982.219.968.208c.142.029.287.048.431.057.163 0 .356.023.575.023.473 0 .813 0 1.017-.03.328-.033.64-.155.904-.352.215-.132.385-.326.487-.557l.186-.45.162-.64.204-.628.129-.688c.063-.42.087-.844.072-1.268l-.023-.617-.034-.575.03-.556-.045-.402c0-.056 0-.567-.805-.492-.806.076-.911.398-.923.466v.31l.087.379v.378l.117.984.08.477c0 .098-.02.204 0 .348.019.144 0 .253 0 .333v.197l-.023.083-.026.303c-.03.132-.077.259-.14.378a1.224 1.224 0 01-.56.606.697.697 0 01-.378.098c-.197 0-.348-.25-.465-.401a1.268 1.268 0 01-.17-.621 2.58 2.58 0 01.03-.246.831.831 0 01.064-.185l.06-.326.076-.17.035-.121c.037-.091.037-.163.075-.28.064-.219.121-.458 0-.556-.12-.099-.858-.201-1.059.056l.023.78-.03.14v.787c-.017.22-.058.437-.121.647a1.093 1.093 0 01-.798.496h-.185s-.121 0-.412-.359a1.008 1.008 0 01-.197-.931c.042-.269.552-3.406.552-3.406 0-.292.106-.235 0-.492a.79.79 0 00-.756-.56h-.495l-.496.045a2.54 2.54 0 00-.446.341.5.5 0 00-.162.378l-.023.348.023.757-.034 2.649.079 1.923c.034.018 0 .049 0 .087l.057.166.083.151a.454.454 0 00.23.14z" fill="#9397CB"/><path d="M46.381 116.763a2.697 2.697 0 01-.824-.155 3.392 3.392 0 01-.854-.442 3.13 3.13 0 01-.688-.636 1.744 1.744 0 01-.42-.942 1.121 1.121 0 010-.11v-1.082l-.05-.292.02-.265-.038-1.309.034-2.536.041-.208a1.559 1.559 0 011.106-1.46c.209-.063.428-.081.645-.053h.174c.378 0 1.433.019 1.561 1.264 0 .09.027.17.042.246.029.132.046.266.053.401.01.057.016.115.019.174v.987l-.027.239c0 .076-.006.152-.018.227-.004.07-.012.139-.023.208l-.023.132-.053.504.783-1.783c.226-.485.526-.933.888-1.328l.48-.496.269-.249a8.54 8.54 0 01.336-.28l.118-.076.514-.227h.219a1.24 1.24 0 011.002.533c.217.255.342.574.355.909l-.06 5.441-.087.473-.068.56c0 .057-.053.269-.057.311-.075.757-.624 1.18-1.618 1.192h-.068c-1.002 0-1.388-.36-1.543-.64a1.325 1.325 0 01-.189-.567l-.105.208a2.356 2.356 0 01-.696.802c-.338.23-.741.344-1.15.325zm-1.39-2.293a.967.967 0 00.12.193c.108.133.236.249.378.345a2 2 0 00.503.268c.121.048.248.077.378.087a.527.527 0 00.31-.075c.119-.084.218-.193.291-.318l.152-.299.29-.757.231-.522a1.238 1.238 0 01-.877.461.958.958 0 01-.79-.378 1.577 1.577 0 01-.174-.276 1.762 1.762 0 01-.08-.174l-.03-.084-.06-.495v-.284l.023-.632.09-.734a.26.26 0 000-.053v-.087l.02-.087v-.072l.026-.22v-1.018a1.588 1.588 0 00-.034-.2c-.02-.114-.042-.231-.057-.379h-.42c-.268-.019-.268.027-.28.224v.087l-.041.215-.023 2.305.038 1.34v.189l.041.306v.98l.02.042-.046.102zm4.755.719c.097.01.195.01.291 0h.33c0-.11.052-.295.083-.42l.041-.458.083-.442.05-5.204-.212.182c-.05.041-.121.11-.208.193l-.465.48c-.21.228-.39.482-.533.757l.124-.174h.571l.416.212.182.519.049.401a7.324 7.324 0 01-.272 1.778l-.51 1.639a.805.805 0 00-.035.185v.231l.015.121z" fill="#231F20"/><path d="M44.37 114.2a.945.945 0 00.064.378c.045.103.101.2.167.291.32.443.759.786 1.266.988.2.085.414.135.632.148l.124-.027.114-.045.174-.152.654-.677.075-.189.133-.341.124-.333.065-.185.049-.099.057-.113.064-.163.257-.579.299-.643.313-.659.254-.563.185-.379a.41.41 0 01.284-.166c.11 0 .196.094.26.291v.7a1.425 1.425 0 01-.026.197c0 .076-.026.14-.034.201-.008.06-.03.132-.053.208l-.09.314-.17.499a5.752 5.752 0 00-.379 1.684.836.836 0 000 .451.724.724 0 00.82.537c.322 0 .519 0 .67-.401 0-.042.072-.314.09-.379.02-.064.035-.125.053-.193l.25-1.328-.026-4.882c-.038-.378-.178-.541-.42-.541a1.03 1.03 0 00-.556.284 5.14 5.14 0 00-.507.481l-.162.189-.22.246-.188.265-.337.492-.125.212-.075.155-.465 1.135-.291.621c-.092.193-.197.38-.314.56l-.106.14c-.046.064-.102.128-.163.2l-.287.273h-.09c-.349 0-.557-.216-.625-.651l-.022-.337v-.764a.405.405 0 010-.11l.052-.344.069-.564.026-.61a4.908 4.908 0 00-.041-.711c-.02-.186-.05-.37-.091-.552-.167-.685-.59-.553-1.04-.553a3.216 3.216 0 00-.31.03c-.378.106-.446.678-.446.678s0 .072-.023.136c-.023.064 0 .117-.023.163v3.511a.342.342 0 01.023.148l.053.257v.326l-.023.189-.03.257.038.398z" fill="#9397CB"/><path d="M56.276 116.764h-.28l-1.278-.075-.43-.148a2.452 2.452 0 01-.417-.189 3.331 3.331 0 01-1.259-1.094 2.685 2.685 0 01-.378-.847l-.026-.091v-.852l-.02-.378v-.473l.061-.428c.014-.086.034-.17.06-.253l.031-.095v-.515l.026-.359.042-.356.125-1.222.023-.534a.865.865 0 01.18-.522 2.516 2.516 0 011.275-1.044c.228-.089.465-.154.707-.193.274-.045.55-.067.828-.065h2.42l.832.091.09.034c.243.108.446.287.583.515.02.036.042.07.068.102l.026.034c.095.159.158.335.185.519l.038.177.027.284-.05.454a1.563 1.563 0 01-.446.988c-.204.206-.45.365-.722.466-.245.07-.5.098-.756.083h-2.42l-.038.03-.037.068.643.068c.404 0 1.289.068 1.485.946v.367a1.136 1.136 0 01-.646 1.166h1.081c1.01.072 1.47.757 1.47 1.355v.075c0 .466 0 1.707-1.375 1.771-.167 0-.378.038-.552.061l-.204.023-.435.026-.537.03zm-1.085-1.438l.84.038h.782l.378-.019h.128c.223-.034.448-.056.673-.068h.03v-.378a.55.55 0 00-.154-.034h-2.534a1.045 1.045 0 01-.862-.522l-.056-.099-.129-.272-.06-.379a1.175 1.175 0 01.99-1.192c.09-.03.185-.05.28-.057l-.469-.045-.083-.026-.166-.061a1.962 1.962 0 01-.208-.102l-.084-.053a1.334 1.334 0 01-.404-.492 1.394 1.394 0 01-.125-.594v-.292l.102-.276a1.12 1.12 0 01.14-.284l.14-.185a1.41 1.41 0 011.063-.511h2.741a.52.52 0 00.192-.129.646.646 0 00.05-.193v-.507l-.042-.06-.48-.049h-2.299a3.804 3.804 0 00-.594.041 2.188 2.188 0 00-.427.121c-.24.082-.447.242-.586.454v.451l-.193 2.183v.451l-.053.128a.821.821 0 01-.045.11v.076l-.042.314v1.301c.035.115.087.224.156.322l.026.042c.194.272.455.491.756.636.06.035.121.065.185.09l.291.099.152.022z" fill="#231F20"/><path d="M53.024 114.15c.062.203.14.4.231.591.351.548.888.951 1.512 1.135.096.024.193.039.291.046l.33.03h1.103l.545-.019.329-.046.378-.034c.824-.17.631-.31.756-.601a1 1 0 00.068-.398c0-.287-.083-.488-.627-.552l-.526-.049H57.3l-.219-.019h-1.747a.57.57 0 01-.427-.242l-.09-.19-.027-.166v-.11a.55.55 0 01.083-.322.429.429 0 01.265-.177l.204-.038.654-.121.22-.046.147-.06.2-.103a.374.374 0 00.129-.314c0-.287-.042-.488-.42-.563h-.287a.46.46 0 01-.117 0h-.265l-.276-.023-.253-.038a.991.991 0 01-.401-.212.635.635 0 01-.159-.481 1.28 1.28 0 01.064-.378.92.92 0 01.889-.632h2.435c.15.008.299-.01.442-.053.45-.166.42-.261.567-.571a1.9 1.9 0 00.072-.541.969.969 0 00-.405-.803l-.174-.022h-.083a.815.815 0 01-.12 0l-.235-.05-.265-.026h-.257l-.514-.023h-.563l-.923.023h-.159l-.23.026-.378.046c-.214.028-.42.096-.61.2a1.63 1.63 0 00-.729 1.071 3.737 3.737 0 00-.106.946v1.688a.489.489 0 00-.09.144c-.027.064-.053.121-.072.182l-.027.132v1.76l-.019.003z" fill="#9397CB"/><path d="M62.813 116.939a1.38 1.38 0 01-.915-.443l-.106-.106-.14-.378a1.12 1.12 0 01-.083-.261 1.148 1.148 0 01-.03-.273v-.049a1.298 1.298 0 01.51-1.291 2.16 2.16 0 01.817-.306l.348-.057.257-.083.06-.136.095-.28.094-.379.08-.427.359-2.131a5.84 5.84 0 01.794-2.176 2.289 2.289 0 011.974-1.135 2.046 2.046 0 011.55.757c.285.302.52.648.695 1.025l.246.538c.064.171.12.345.166.522l.084.378.045.352.064 2.119.083.379h.885c.2-.027.403-.001.59.075.251.138.449.357.56.621l.124.25c.09.201.154.414.19.632l.14.757-.28.261a2.669 2.669 0 01-.65.461 4.03 4.03 0 01-.712.277l-.397.109-.325.05-.998.087-1.493.045-3.494.068c-.378.023-.885.065-.99.087-.064.027-.13.047-.197.061zm.125-1.472v.045c.306-.034.756-.064.983-.079l5.293-.137.817-.09.253-.076a2.84 2.84 0 00.48-.182l.034-.019a.959.959 0 00-.06-.227l-.084-.17H69.24l-.336-.235-.261-.378-.113-.208-.163-.757-.034-.299v-.265a1.51 1.51 0 010-.219l-.03-1.488-.027-.177-.06-.262a3.956 3.956 0 00-.106-.336l-.208-.454a2.337 2.337 0 00-.42-.64l-.049-.053a.666.666 0 00-.518-.295.892.892 0 00-.801.496 4.502 4.502 0 00-.59 1.653l-.454 2.649-.12.481-.137.378-.185.379a1.308 1.308 0 01-.272.299 1.443 1.443 0 01-.322.193l-.072.03-.476.148-.412.068a.638.638 0 00-.155.038v.045c0 .011.015.102.019.144z" fill="#231F20"/><path d="M71.305 114.502c-.098-.276-.178-.477-.446-.537a4.11 4.11 0 00-.628-.019l-.737.026c-.272-.098-.442-.378-.522-.855l-.064-.465-.046-1.136v-.722l-.026-.258a.993.993 0 000-.117c0-.026 0-.079-.034-.155l-.227-.738-.106-.254a3.54 3.54 0 00-.427-.756 1.543 1.543 0 00-.824-.613.902.902 0 00-.254-.031 1.553 1.553 0 00-1.35.799 4.98 4.98 0 00-.642 1.862l-.038.166-.045.22-.03.189-.06.496-.19 1.316-.045.227a.517.517 0 01-.057.186l-.045.178a1.375 1.375 0 01-.564.931 1.287 1.287 0 01-.378.117l-.408.083a1.37 1.37 0 00-.2.053.823.823 0 00-.186.083c-.094.053-.25.088-.314.19a.754.754 0 00-.079.378.675.675 0 00.144.405c.034.038.155.223.211.25a.985.985 0 00.378.034h.632a.396.396 0 01.174-.053l.548-.076h.476l4.674-.102.43-.072.473-.113c.283-.045.55-.158.779-.33a.35.35 0 00.14-.242 1.601 1.601 0 00-.087-.545zm-3.55-2.07l-.03.239-.072.378-.072.356-.034.219a.49.49 0 01-.216.303.539.539 0 01-.348.136.956.956 0 01-.65-.219.796.796 0 01-.268-.636v-.144l.019-.087v-.03l.022-.076.042-.06.333-1.393c.094-.284.253-.428.468-.428a.706.706 0 01.374.109.707.707 0 01.258.293c.12.224.18.475.174.73v.31z" fill="#9397CB"/><path d="M66.828 114.381c-.328.01-.648-.1-.9-.31a1.179 1.179 0 01-.397-.924v-.159a.429.429 0 010-.068v-.064a.594.594 0 010-.098l.023-.076a.585.585 0 01.05-.102l.313-1.321c.212-.632.616-.719.84-.719a1.073 1.073 0 01.956.59c.157.281.235.599.227.92v.329a.247.247 0 010 .053l-.106.628-.102.564a1.013 1.013 0 01-.938.757h.034zm-.54-1.355v.121a.432.432 0 00.136.352c.115.09.259.134.404.125a.188.188 0 00.11-.049c.075-.053.08-.079.083-.091l.03-.197.17-.938v-.303a1.072 1.072 0 00-.124-.541c-.114-.197-.216-.212-.303-.212s-.102.144-.113.17l-.322 1.359a.313.313 0 01-.056.125v.023l-.015.056zm7.872 3.739h-.148a1.512 1.512 0 01-1.316-.488 2.454 2.454 0 01-.404-1.396v-.602l.022-.549v-.768l.11-3.739c.105-.517.387-.981.798-1.313.182-.147.38-.273.59-.378.231-.11.47-.203.714-.28l.495-.156.757-.128c.083 0 .181-.027.276-.034.085-.006.171-.006.257 0l.756-.042.306.03c.639.166 1.25.421 1.819.757.37.206.648.546.775.95.07.195.109.399.117.606v.333a2.721 2.721 0 01-.174 1.002 3.676 3.676 0 01-1.025 1.586 2.734 2.734 0 01-.865.53l-.379.11-.268.045-.843.182a2.64 2.64 0 00-.734.276.4.4 0 00-.238.378v.034l.023.08.314.859.053.321v.099c.02.215.004.433-.046.643a1.593 1.593 0 01-.491.757 1.924 1.924 0 01-1.252.295zm-.163-1.4h.09c.15.004.301-.002.45-.019 0 0 .023-.049.034-.083.012-.034 0-.121 0-.197l-.018-.117-.027-.099-.295-.779a.933.933 0 01-.053-.307v-.106a1.781 1.781 0 01.889-1.559 4.041 4.041 0 011.164-.461l1.135-.231.207-.068a1.28 1.28 0 00.405-.239c.292-.266.507-.606.624-.984.037-.094.065-.192.083-.291.014-.076.02-.154.019-.231v-.333a.788.788 0 00-.045-.193.336.336 0 00-.11-.166 6.08 6.08 0 00-1.376-.602h-.465l-.34.023h-.152l-.178.022-.699.118-.378.117a3.732 3.732 0 00-.53.208 1.862 1.862 0 00-.336.201.814.814 0 00-.28.45l-.106 3.954v.345l-.019.549v.575c0 .163.029.326.084.48l.223.023z" fill="#231F20"/><path d="M78.677 108.319a3.597 3.597 0 00-1.433-.564h-1.092l-.136.03-.378.057a3.55 3.55 0 00-1.982.825 1.863 1.863 0 00-.23.269c-.065.09-.117.19-.155.295l-.027.45-.128 5.018c0 .181.014.362.041.541a.845.845 0 00.424.632c.168.061.348.083.525.064.28.028.561-.036.802-.181a.929.929 0 00.23-.719s-.045-.148-.045-.163c0-.015-.041-.204-.041-.204l-.133-.318-.128-.318-.05-.204v-.14a1.165 1.165 0 01.571-1.056 2.733 2.733 0 01.897-.379l.378-.087.657-.136.33-.087.113-.026a.583.583 0 00.113-.05.647.647 0 00.261-.151l.265-.208c.086-.071.165-.151.234-.239l.186-.208a2.373 2.373 0 00.42-.688c.026-.053.048-.11.071-.167.02-.059.03-.12.03-.182a1.82 1.82 0 00.03-.404 1.576 1.576 0 00-.62-1.302zm-1.739 2.157a1.146 1.146 0 01-.378.17h-.234l-.227-.023a.568.568 0 01-.265-.136.416.416 0 01-.11-.318.54.54 0 01.08-.303l.083-.14.11-.105a.968.968 0 01.359-.19l.235-.022h.086l.144.045a.408.408 0 01.204.091.38.38 0 01.208.378.619.619 0 01-.295.553z" fill="#9397CB"/><path d="M76.254 110.998h-.034l-.227-.023h-.057a1.024 1.024 0 01-.43-.223.821.821 0 01-.235-.602.908.908 0 01.144-.511l.075-.125a.38.38 0 01.06-.075l.11-.11.03-.023a1.25 1.25 0 01.507-.261h.053l.356-.019a.376.376 0 01.106 0l.143.042a.74.74 0 01.31.14.755.755 0 01.378.692 1 1 0 01-.484.856c-.147.101-.31.177-.484.223h-.294l-.027.019zm-.163-.757h.333a.906.906 0 00.22-.114c.128-.083.14-.159.14-.219a.086.086 0 000-.046.242.242 0 01-.069-.045h-.034l-.155-.034h-.166a.548.548 0 00-.182.102l-.056.057-.06.098a.183.183 0 00-.027.106.249.249 0 000 .061l.056.034zm7.211 6.443h-.681l-.911-.128-.17-.072-.62-.333-.515-.307a2.587 2.587 0 01-.59-.496l-.105-.113a1.991 1.991 0 01-.685-1.313 1.61 1.61 0 01.378-.882l.038-.057c.201-.287.49-.499.825-.605.162-.072.332-.126.506-.163a2.504 2.504 0 01-.102-.227 6.937 6.937 0 01-.5-2.672v-.794l.027-.095a1.347 1.347 0 01.941-.931c.107-.043.258-.092.454-.147l.091-.027h.473c.446-.036.895.045 1.3.235.151.085.288.194.405.321.06-.102.132-.196.216-.28.349-.284.795-.42 1.243-.378.094 0 .188.007.28.023l.522.109.072.038.102.042a1.208 1.208 0 01.79.897c.038.124.067.25.087.378l.05.507v.269c0 .906-.102 1.81-.303 2.694a17.66 17.66 0 01-.783 2.551 3.443 3.443 0 01-1.906 1.809 2.744 2.744 0 01-.93.147zm1.16-1.952a3.51 3.51 0 01-.423.314 2.114 2.114 0 01-.242.143c.251-.103.478-.259.665-.457zm-4.011-.757c.06.075.196.223.287.318l.11.124c.08.093.173.173.276.239l.155.091a1.808 1.808 0 01-.091-.129l-.042-.076-.302-.635a2.89 2.89 0 00-.106-.209l-.083.031-.072.045-.041.065-.091.136zm1.932-.084a.421.421 0 01.038.05l.049.049a.335.335 0 00.123.078.325.325 0 00.145.016c.194-.012.38-.08.537-.196l.102-.068a2.048 2.048 0 01-1.089-.129l.095.2zm-.817-5.055v.488a5.617 5.617 0 00.378 2.134c.109.28.28.53.503.731.175.154.398.244.631.253a.695.695 0 00.594-.378l.159-.235.072-.072.204-.287a1.13 1.13 0 01.378-.303l.926-.416.076 1.286c0-.06.03-.121.041-.181.18-.781.27-1.58.269-2.381v-.53a1.955 1.955 0 00-.046-.211v-.019l-.083-.034-.268-.057h-.072a2.06 2.06 0 00-.272 0c0 .041-.027.117-.046.216l-.041.408-.027.435c0 .148-.018.296-.052.439-.03.13-.07.256-.121.379l-.027.057a1.135 1.135 0 01-1.047.616.92.92 0 01-.923-.855v-.306a.975.975 0 01.072-.28l.129-.439v-.216a.592.592 0 00-.186-.291 1.762 1.762 0 00-.608-.061h-.295a1.596 1.596 0 00-.212.072l-.106.038z" fill="#231F20"/><path d="M80.772 115.104c.049.048.102.091.159.129.05.039.105.073.162.102l.34.189c.055.036.112.067.17.095a.857.857 0 00.163.06l.31.11c.073.026.15.039.227.038l.326.023h.654c.185.002.37-.016.552-.053.703-.159 1.216-.664 1.538-1.514.095-.246.148-.378.163-.424a8.02 8.02 0 00.155-.492l.26-.98a11.39 11.39 0 00.428-2.993 1.76 1.76 0 00-.174-.973 1.017 1.017 0 00-.885-.378.806.806 0 00-.824.416 1.493 1.493 0 00-.125.42c-.022.144-.03.29-.022.435v.481l-.02.212-.063.189a.586.586 0 01-.62.405c-.212 0-.322-.129-.322-.379a.763.763 0 01.038-.223l.064-.223.068-.223c.027-.072.034-.121.042-.144v-.129a1.555 1.555 0 00-.117-.454.992.992 0 00-.734-.708c-.068 0-.416-.022-.491-.022l-.314.026-.28.053-.166.057-.11.038a1.278 1.278 0 00-.22.163.409.409 0 00-.12.174v1.014l.023.31c.03.212.052.379.071.488l.076.379c.034.136.08.272.117.408.038.137.087.273.144.413.37.913.916 1.37 1.637 1.37.091-.001.182-.01.272-.027.08-.015.156-.037.23-.068.138-.067.265-.152.379-.253a.673.673 0 00.162-.152l.14-.174a1.48 1.48 0 00.129-.174l.098-.147.182-.246c.06-.072.11-.103.155-.103l.113.034a.223.223 0 01.076.106v.473c0 .14-.014.279-.038.417-.03.162-.075.322-.132.477-.06.155-.132.306-.216.45a2.932 2.932 0 01-.987 1.041 1.657 1.657 0 01-.892.257 1.328 1.328 0 01-.166-.019 2.252 2.252 0 01-.2-.03l-.133-.065-.053-.026-.08-.03-.09-.05-.166-.117-.16-.132-.109-.137a.746.746 0 01-.129-.246l-.079-.265-.117-.291c-.098-.166-.28-.469-.526-.352a2.827 2.827 0 00-.499.254l-.08.094c-.086.118-.222.258-.222.379.022.416.363.813.858 1.237z" fill="#9397CB"/><path d="M91.498 116.765h-.794l-.408-.03-.378-.064a4.294 4.294 0 01-.56-.133 6.03 6.03 0 01-.624-.242l-.052-.027-.379-.227-.408-.329a2.85 2.85 0 01-.491-.549l-.023-.041a2.651 2.651 0 01-.26-1.105 1.36 1.36 0 01.377-.924c.214-.218.472-.388.756-.499a1.54 1.54 0 01.711-.227 1.29 1.29 0 011.278.904c.042.095.148.318.352.704a.25.25 0 00.045.057c.318 0 .4-.117.461-.242a1.02 1.02 0 00.065-.193.286.286 0 000-.057l-.465-.208-.129-.08a1.257 1.257 0 01-.609-1.105 1.278 1.278 0 01.167-.639l.041-.068.254-.337.344-.379.079-.109a.65.65 0 00.038-.068l.034-.072-.488.579a1.537 1.537 0 01-.25.227c-.097.073-.2.14-.306.2l-.102.053a1.46 1.46 0 01-.692.208 2.99 2.99 0 01-1.576-.881 1.251 1.251 0 01-.246-.666v-.057a1.727 1.727 0 01.106-.613c.059-.154.143-.298.25-.424.349-.469.82-.834 1.36-1.056a7.11 7.11 0 011.638-.549l.684-.132.31-.042c.136 0 .25-.019.352-.019a2.27 2.27 0 011.565.595 2.1 2.1 0 01.684 1.54c.001.2-.014.4-.045.598a2.737 2.737 0 01-.159.567 2.55 2.55 0 01-.707 1.022l-.25.212.757.583c.154.124.29.271.4.435a2.02 2.02 0 01.394 1.203 2.32 2.32 0 01-1.017 1.893 4.09 4.09 0 01-.878.491 4.83 4.83 0 01-.956.28l-.25.042zm-.351-1.4h.287l.129-.019a3.47 3.47 0 00.654-.197c.195-.081.38-.185.552-.31a.927.927 0 00.457-.757.607.607 0 00-.03-.193.705.705 0 00-.102-.2.974.974 0 00-.144-.159l-.351-.28v.06a3.034 3.034 0 01-.06.579 2.21 2.21 0 01-.179.526 1.796 1.796 0 01-1.213.95zm-1.811-.337c.143.065.289.122.438.17.068.023.138.042.208.057a1.565 1.565 0 01-.586-.571l-.022-.042a15.595 15.595 0 01-.405-.81.149.149 0 000-.034l-.038.019-.125.061a1.082 1.082 0 00-.272.147h-.019c.011.143.044.284.099.417.037.041.185.181.245.238l.05.049.185.136.242.163zm2.083-2.918l.17.072a1 1 0 01-.05-.212l-.12.14zm.968-2.217v.265c.002.127-.008.253-.03.378a.547.547 0 010 .083c.153-.127.271-.291.344-.476v-.038c.036-.089.063-.182.08-.276.017-.126.026-.252.025-.379a.657.657 0 00-.226-.503.886.886 0 00-.624-.231h-.208l-.212.026h-.049c.156.031.301.1.424.201.079.058.15.127.211.204.046.065.086.134.121.205.092.166.141.351.144.541zm-3.71.166c.142.096.29.181.443.254l.072-.038.148-.091.037-.034.333-.378.193-.254c.154-.211.348-.391.57-.53a6.475 6.475 0 00-.9.341 1.895 1.895 0 00-.797.571l-.045.061a.825.825 0 00-.06.087c-.016.023.007-.011.007.011z" fill="#231F20"/><path d="M87.967 114.026c-.023.703.442 1.233 1.202 1.562.397.173.818.281 1.248.322l.34.034h.567l.28-.03.295-.064.302-.091.307-.118c.099-.031.194-.074.283-.128.663-.348.993-.811.99-1.389a1.375 1.375 0 00-.264-.825 1.472 1.472 0 00-.223-.235 4.655 4.655 0 00-.355-.272l-.408-.28a2.71 2.71 0 01-.178-.14 1.191 1.191 0 01-.136-.14.466.466 0 01-.087-.159.554.554 0 01-.034-.186.805.805 0 010-.17.944.944 0 01.08-.151l.105-.163.125-.125.313-.284a1.983 1.983 0 00.628-1.184c.018-.125.026-.252.027-.379a1.278 1.278 0 00-.125-.518 2.312 2.312 0 00-.136-.235.756.756 0 00-.182-.17 1.419 1.419 0 00-.994-.356 5.625 5.625 0 00-2.749.659 2.153 2.153 0 00-.378.257 2.054 2.054 0 00-.317.307l-.103.132-.09.083-.05.091a.888.888 0 00-.117.182.413.413 0 00-.041.185c0 .167.098.239.223.379.209.188.451.335.714.435.318-.028.612-.175.825-.413l.204-.2.298-.31.51-.504a.252.252 0 01.163-.068h.174a.536.536 0 01.492.227.913.913 0 01.09.25l.03.303c.001.17-.024.34-.075.503a1.663 1.663 0 01-.208.428l-.14.196-.155.182-.378.409-.075.121v.125a.47.47 0 00.083.257l.102.117a.926.926 0 00.378.243l.287.136.212.117a.185.185 0 01.087.11v.878a.524.524 0 01-.166.356 1.248 1.248 0 01-.378.283 2.23 2.23 0 01-.541.212l-.276.042a.781.781 0 01-.7-.416l-.26-.553a2.522 2.522 0 00-.378-.564c-.257-.272-.825.027-.991.171a.638.638 0 00-.276.526z" fill="#9397CB"/><path d="M97.763 116.764a3.188 3.188 0 01-.646-.057l-.514-.113a2.416 2.416 0 01-1.414-1.359 4.964 4.964 0 01-.155-.42 4.314 4.314 0 01-.11-.45l-.08-.5v-.408l-.022-1.276.022-.295.212-2.94.076-.223a.922.922 0 01.023-.103c.025-.136.06-.27.105-.401.401-1.086 1.135-1.071 1.479-1.063h.087a1.375 1.375 0 011.198.541c.104.162.17.346.193.537v.057c.06.177.089.362.087.549v1.097c0 .152-.034.333-.064.522-.04.303-.059.608-.057.912l.023.152.06.216h1.58a1.437 1.437 0 011.222.681l.166.276.076.185c.036.088.065.177.087.269.026.124.037.251.034.378a2.977 2.977 0 01-1.176 2.441 3.937 3.937 0 01-2.492.795zm-.714-1.514l.348.072c.124.021.251.03.378.027a2.53 2.53 0 001.622-.507 1.561 1.561 0 00.635-1.336v-.061a.28.28 0 000-.041l-.05-.114-.075-.125-.038-.038H98.02a.982.982 0 01-.79-.412 1.517 1.517 0 01-.264-.515l-.125-.431-.042-.356a9.038 9.038 0 01.072-1.173c.026-.17.045-.299.053-.416.008-.118 0-.314 0-.549v-.447a.436.436 0 000-.128 1.176 1.176 0 01-.042-.155h-.215c0 .03-.038.079-.068.155-.02.07-.037.14-.05.212-.022.098-.04.185-.056.231l-.026.075-.216 3.028.034 1.513.06.348c.02.099.043.196.072.292.03.094.065.189.102.276.092.259.282.472.53.59v-.015z" fill="#231F20"/><path d="M100.357 112.886a.734.734 0 00-.256-.23.734.734 0 00-.334-.084H97.99c-.185 0-.348-.147-.491-.439a.584.584 0 01-.05-.151c-.022-.068-.041-.136-.06-.193-.019-.057-.027-.114-.038-.17-.011-.057 0-.099 0-.144l.023-.564v-.265c.007-.093.02-.185.038-.276l.056-.526v-1.143l-.064-.246a.574.574 0 00-.121-.333.731.731 0 00-.461-.136c-.348 0-.605.026-.825.635a3.585 3.585 0 00-.158.568c-.04.17-.06.344-.064.519v1.646l-.023.136-.05.329c-.022.159-.045.291-.049.379a2.505 2.505 0 00-.022.245l.022.844v.246l.027.167.057.401.087.378a1.759 1.759 0 00.121.337 1.847 1.847 0 001.856 1.105 3.76 3.76 0 00.57-.038c.168-.021.333-.061.492-.117a3.1 3.1 0 00.897-.465c.259-.205.47-.463.62-.757.156-.32.232-.673.223-1.03a1.06 1.06 0 00-.246-.628zm-1.932 1.514a.746.746 0 01-.33.132h-.233a.375.375 0 01-.437-.253.378.378 0 01-.013-.182c0-.078.008-.155.026-.231a.482.482 0 01.102-.185.468.468 0 01.378-.167.947.947 0 01.477.125.544.544 0 01.181.443.374.374 0 01-.151.31v.008z" fill="#9397CB"/><path d="M97.865 114.979a.817.817 0 01-.9-.867c0-.118.014-.236.042-.351a.965.965 0 01.182-.349 1.13 1.13 0 011.433-.136c.018.008.035.02.049.034a.952.952 0 01.344.787.79.79 0 01-.295.629 1.195 1.195 0 01-.556.234l-.295.019h-.004zm-.132-.757a.36.36 0 00.114 0h.238a.442.442 0 00.166-.072v-.038a.287.287 0 00-.045-.185c-.155-.079-.378-.11-.446 0a.271.271 0 00-.03.061.628.628 0 000 .155.27.27 0 000 .094l.003-.015zm9.551 2.778a1.142 1.142 0 01-.458-.087l-.109-.038a1.436 1.436 0 01-.968-.957 2.996 2.996 0 01-.197-1.158v-.152l-.095.159-.283.572c-.097.174-.208.34-.333.495a3.108 3.108 0 01-.96.814 1.479 1.479 0 01-1.357.185c-.14-.045-.575-.193-1.207-1.483l-.087-.178.11-.867.098-.14a2.16 2.16 0 00.11-.155 2.718 2.718 0 011.267-1.116l.121-.072a2.503 2.503 0 01-.378-.136l-.053-.027a2.099 2.099 0 01-1.055-1.941v-.378l.098-.315.087-.162a6.988 6.988 0 011.989-2.195 5.205 5.205 0 012.93-.806c.48-.011.958.073 1.406.246a2.706 2.706 0 011.592 1.926 5.302 5.302 0 01.151 1.366v.553l-.045.537-.121 1.253-.045 1.43-.053.689-.087.598a3.268 3.268 0 01-.076.28v.03a1.011 1.011 0 01-.268.64 1.613 1.613 0 01-1.256.548 1.336 1.336 0 00-.155 0 2.353 2.353 0 01-.313.042zm-.409-2.388v.148c-.011.22.023.44.099.647a.731.731 0 00.098.193l.072.019.151.056h.144c.1-.013.201-.02.302-.022a.262.262 0 00.216-.065c.009-.07.024-.14.045-.208 0-.049.03-.106.045-.166l.072-.5.046-.594.083-2.032.125-1.192v-.496a3.957 3.957 0 00-.114-1.029 1.369 1.369 0 00-.817-1.022 2.374 2.374 0 00-.896-.144 3.907 3.907 0 00-2.2.587 5.713 5.713 0 00-1.58 1.767v.17a.797.797 0 00.378.78c.162.061.33.102.502.121h1.108l.469.405.098.409v.079c0 .101-.015.202-.045.299l.181-.148h.469a1.14 1.14 0 01.579.122.84.84 0 01.45.836c0 .072 0 .208-.046.621l-.034.359zm-3.86.988c.073-.045.149-.086.227-.121.212-.12.399-.281.548-.473.073-.091.139-.187.197-.288l.306-.609.348-.591c-.12.077-.247.143-.378.197l-.756.295a.824.824 0 01-.178.095c-.3.13-.547.358-.7.647l-.034.045-.019.137c.125.235.271.459.439.666z" fill="#231F20"/><path d="M108.898 110.162c0-.087 0-.174-.027-.269a3.159 3.159 0 00-.487-1.419 2.023 2.023 0 00-.789-.627 2.025 2.025 0 00-.992-.172c-.32 0-.639.029-.953.087a6.091 6.091 0 00-.903.228 3.3 3.3 0 00-.859.412l-.378.291a1.686 1.686 0 00-.329.33l-.295.378-.291.413c-.194.258-.3.573-.302.896-.005.176.015.352.056.523 0 .049.046.109.084.196.027.062.059.121.094.178a.958.958 0 00.522.401l.208.072.144.023c.05.005.1.005.151 0l.193.03h.283l.405.027c.261.045.378.144.378.299 0 .28-.231.522-.707.726l-.662.292-.295.125c-.723.34-1.084.779-1.081 1.317 0 .075.427 1.108.968 1.135.699.026 1.062-.42 1.41-1.014.113-.227.193-.379.227-.489l.072-.155.041-.117.106-.227.098-.17c.097-.192.225-.366.379-.515a.842.842 0 01.582-.204c.344 0 .514.159.514.484 0 .102-.023.303-.06.598l-.031.318v.14l.023.287.129.515c.23.757.657.64 1.24.64.221-.027.432-.106.616-.231l.117-.223c.033-.107.058-.216.076-.326l.351-4.424v-.511c-.019-.083-.022-.177-.026-.268zm-1.891.041c-.147.458-.378.685-.657.685a.976.976 0 01-.59-.174.713.713 0 01-.216-.556.58.58 0 01.042-.193l.049-.091.125-.132.113-.118c.176-.141.389-.226.613-.246l.196.057c.06.021.114.055.159.099.063.03.114.079.148.14.03.054.046.115.045.177l-.027.352z" fill="#9397CB"/><path d="M106.353 111.266a1.391 1.391 0 01-.809-.242l-.041-.034a1.09 1.09 0 01-.269-1.154.147.147 0 01.023-.049l.049-.095a.295.295 0 01.057-.079l.249-.254a1.444 1.444 0 01.877-.359.314.314 0 01.106 0l.197.057h.045c.089.035.17.085.242.147a.692.692 0 01.25.265.731.731 0 01.087.352l-.027.378a.317.317 0 010 .087c-.276.818-.714.98-1.036.98zm-.351-.847a.656.656 0 00.351.091c.133 0 .235-.243.288-.379l.019-.265a.466.466 0 01-.076-.056h-.027l-.109-.031a.93.93 0 00-.325.155l-.186.201a.148.148 0 000 .042.38.38 0 00.065.238v.004z" fill="#231F20"/></svg>